<?xml version="1.0" encoding="UTF-8"?>
<svg width="192px" height="105px" viewBox="0 0 192 105" version="1.1" xmlns="http://www.w3.org/2000/svg" xmlns:xlink="http://www.w3.org/1999/xlink">
    <title>84445FA2-D656-4E29-9996-A7241E413E9E@3x</title>
    <defs>
        <polygon id="path-1" points="0 0 26.1076989 0 26.1076989 27.9679336 0 27.9679336"></polygon>
        <polygon id="path-3" points="0 0 26.1077782 0 26.1077782 27.9679336 0 27.9679336"></polygon>
    </defs>
    <g id="Page-1" stroke="none" stroke-width="1" fill="none" fill-rule="evenodd">
        <g id="Cenefas" transform="translate(-1097.000000, -2429.000000)">
            <g id="Group-2" transform="translate(400.000000, 2056.000000)">
                <g id="logo_9" transform="translate(697.000000, 373.000000)">
                    <g id="Group-27" transform="translate(17.000000, 39.000000)">
                        <path d="M42.6887601,0.418508535 L27.131895,0.418508535 C24.6786611,0.418508535 22.2952528,0.418508535 20.1617932,1.50147164 C18.0265547,2.58576899 16.1421544,4.75480845 14.6896051,9.08977412 C14.3778363,10.0215227 14.2110555,10.8260731 14.1879286,11.5212153 C14.1661359,12.222584 14.287997,12.8176578 14.5521778,13.3335663 C14.8799576,13.962441 15.408319,14.55707 16.0709946,15.056078 C16.7323359,15.5564203 17.5262124,15.9629207 18.3787957,16.2239882 C18.4112623,16.2315489 18.8609033,16.3614155 19.4048309,16.5157433 C19.9469796,16.6718501 20.5820808,16.8586446 20.9819098,16.9791715 C21.2167372,17.0521103 21.4746914,17.144618 21.7095187,17.2851586 C21.9443461,17.4256992 22.1547122,17.6111594 22.2872473,17.8691136 C22.3739733,18.0421209 22.4202272,18.2289153 22.4251194,18.4299418 C22.4309011,18.6323024 22.3971002,18.8502293 22.3166007,19.0801644 C22.1191323,19.6690117 21.8162584,20.0488271 21.2416431,20.2805411 C20.668362,20.5122552 19.8220052,20.5865282 18.5397947,20.595868 L2.5319544,20.595868 L0,27.5490693 L17.1352783,27.5490693 C18.7483818,27.5490693 21.6957315,27.5490693 24.5305598,26.3455793 C27.3636091,25.142534 30.0796894,22.735554 31.2306991,17.923373 C31.6629948,16.1141352 31.5304597,14.6389038 30.8210855,13.4816676 C30.1090429,12.3248762 28.8237191,11.4856354 26.951327,10.948379 C26.951327,10.948379 26.5328185,10.8260731 26.0382579,10.6855325 C25.5485896,10.5436576 24.981535,10.3813244 24.6911141,10.2977116 C24.2121197,10.1620633 23.8429783,9.88365056 23.6250514,9.53140958 C23.4089036,9.17916861 23.3439702,8.7499861 23.4676104,8.31279812 C23.595698,7.85870969 23.9065774,7.49534999 24.3557736,7.24540122 C24.8071935,6.99634194 25.3987093,6.85891459 26.089404,6.85891459 L36.0491066,6.85891459 C36.1198217,6.75840138 36.184755,6.6489932 36.2545805,6.54536675 C38.0727132,3.97338497 40.2755536,1.88929252 42.6887601,0.418508535" id="Fill-1" fill="#252525"></path>
                        <path d="M42.6972548,0.388221148 L27.1403897,0.388221148 C24.6871558,0.388221148 22.3050817,0.388221148 20.1702879,1.47118425 C18.0350494,2.55548161 16.1519833,4.72318682 14.6998788,9.05948673 C14.386331,9.99123527 14.2195502,10.7944514 14.1977575,11.4909279 C14.1759648,12.1909624 14.2982707,12.7855914 14.5624515,13.3014999 C14.8884523,13.9321536 15.4168137,14.5267826 16.0794893,15.0257907 C16.7421649,15.5247987 17.5347071,15.9326333 18.3890693,16.1919218 C18.421536,16.2012615 18.8711769,16.3293491 19.4146599,16.4854559 C19.9554743,16.6415627 20.5905755,16.8270229 20.9921835,16.9475498 C21.2252319,17.0218229 21.4849651,17.1143306 21.7197924,17.2535369 C21.9528408,17.3940775 22.1632069,17.580872 22.295742,17.8388262 C22.382468,18.0104992 22.4287219,18.1972937 22.4336141,18.3996544 C22.4393958,18.602015 22.4055949,18.8199419 22.3250954,19.0485427 C22.127627,19.6387243 21.8260874,20.0172054 21.2501378,20.2502537 C20.6768567,20.4819678 19.8318342,20.5562409 18.5496236,20.5655806 L2.5404491,20.5655806 L0.00982894647,27.5187819 L17.145552,27.5187819 C18.7582108,27.5187819 21.7055605,27.5187819 24.5390545,26.3152919 C27.3721038,25.1122466 30.0881841,22.7052666 31.2391938,17.8913066 C31.6732685,16.0838478 31.5389544,14.6086164 30.8295802,13.4513802 C30.1175376,12.2928098 28.8322138,11.4540138 26.9616007,10.9180916 C26.9616007,10.9180916 26.5413132,10.7957857 26.0485316,10.6539109 C25.5584185,10.5133703 24.9900297,10.351037 24.6996088,10.2674242 C24.2206144,10.1317759 23.853252,9.85336317 23.6335461,9.49978795 C23.4191772,9.14754697 23.3524649,8.71969871 23.4761051,8.28251073 C23.6059717,7.8284223 23.9150721,7.46506261 24.3642683,7.21511383 C24.8156882,6.96605455 25.407204,6.8286272 26.0978987,6.8286272 L36.0589356,6.8286272 C36.1300954,6.72677975 36.1932497,6.61692682 36.2644095,6.51507936 C38.0825422,3.94131858 40.2858273,1.85900513 42.6972548,0.388221148" id="Fill-3" fill="#252525"></path>
                        <path d="M127.38408,0.434430539 C127.916889,0.854718069 128.372757,1.33504667 128.754351,1.88208759 C129.730574,3.2892725 130.104608,4.96063815 129.880455,6.87483659 L134.876762,6.87483659 L127.346721,27.5712178 L134.870535,27.5712178 L142.404578,6.87483659 L152.070747,6.87483659 L154.417241,0.434430539 L127.38408,0.434430539 Z" id="Fill-5" fill="#252525"></path>
                        <path d="M119.706961,9.08870672 C118.900632,11.2590804 117.454754,12.5999978 114.703094,12.5999978 L114.690641,12.5999978 L113.26789,12.5968845 L115.702444,6.03595158 L117.086947,6.03595158 C119.618901,6.03595158 120.564437,6.77779243 119.706961,9.08870672 M127.00929,3.09482837 C125.770665,1.31360979 123.252498,0.439233825 119.306688,0.434341589 L110.171994,0.434341589 L100.294125,27.5653471 L108.684309,27.5653471 L112.277879,18.0165923 C112.450886,18.4088607 114.570114,27.5653471 114.570114,27.5653471 L123.393039,27.5653471 C123.393039,27.5653471 121.787941,20.8371886 120.607578,18.119774 C120.304704,17.4201843 119.988043,16.6369818 119.564642,15.9832012 C122.056569,15.0581239 125.668373,13.0683182 127.162284,9.04067386 C128.082914,6.56431305 128.029099,4.56383335 127.00929,3.09482837" id="Fill-7" fill="#252525"></path>
                        <g id="Group-11" transform="translate(33.135627, 0.032066)">
                            <mask id="mask-2" fill="white">
                                <use xlink:href="#path-1"></use>
                            </mask>
                            <g id="Clip-10"></g>
                            <path d="M16.8603099,13.8263479 C14.5351637,20.1911466 12.8468976,21.7931315 10.3069377,21.7931315 L10.3024902,21.7931315 C7.82924265,21.7900183 6.96109317,20.2249475 9.27512071,13.8912812 C11.0051932,9.16226815 13.2436134,6.13931118 15.9548016,6.13931118 L15.9565806,6.13931118 C18.5316756,6.14242442 19.1218571,7.63455634 16.8603099,13.8263479 M24.8377675,2.927336 C23.483063,0.98867638 21.16103,0.00311324096 17.9339333,0 C15.8236007,0 13.7719749,0.485220842 11.8519947,1.39161871 C9.10211346,2.69117444 6.61196544,4.86332713 4.57724009,7.74129603 C3.25500218,9.6119091 2.12400622,11.7778353 1.23717729,14.2017158 C-0.431075118,18.772843 -0.412840421,22.4851605 1.29588412,24.9290546 C2.26321256,26.3135574 4.27436622,27.9649093 8.3664991,27.9680226 L8.3820653,27.9680226 C15.8360537,27.9680226 21.4007495,23.0815685 24.9244935,13.4478667 C25.8544631,10.8972329 27.0824143,6.14064543 24.8377675,2.927336" id="Fill-9" fill="#252525" mask="url(#mask-2)"></path>
                        </g>
                        <path d="M87.7592385,0.418508535 L71.9043917,0.418508535 C67.4720261,0.418508535 64.1724354,2.66182102 62.6153702,6.85891459 L55.0839956,27.5490693 L63.3318604,27.5490693 L67.2020636,16.9129039 L74.4937187,16.9191304 L76.5666925,11.2214547 L69.2999433,11.2170072 L70.4691877,7.91875076 C70.7146889,7.32856923 71.2955308,6.85891459 72.149893,6.85891459 C72.6257741,6.85891459 77.9756564,6.85891459 80.7473303,6.86069359 C80.8180454,6.75840138 80.8816444,6.6489932 80.9528042,6.54536675 C82.7709369,3.97338497 85.346032,1.88929252 87.7592385,0.418508535" id="Fill-12" fill="#252525"></path>
                        <g id="Group-16" transform="translate(78.110722, 0.032066)">
                            <mask id="mask-4" fill="white">
                                <use xlink:href="#path-3"></use>
                            </mask>
                            <g id="Clip-15"></g>
                            <path d="M16.8597615,13.8263479 C14.5346152,20.1911466 12.8463491,21.7931315 10.3081682,21.7931315 L10.3019417,21.7931315 C7.82691518,21.7900183 6.96321319,20.2249475 9.27768547,13.8912812 C11.0046447,9.16226815 13.2461782,6.13931118 15.9529188,6.13931118 L15.9573663,6.13931118 C18.5329061,6.14242442 19.1230876,7.63455634 16.8597615,13.8263479 M24.8389981,2.927336 C23.4825145,0.98867638 21.1635947,0.00311324096 17.9320506,0 C15.8230522,0 13.7732054,0.485220842 11.8514463,1.39161871 C9.10289923,2.69117444 6.61275121,4.86332713 4.57802586,7.74129603 C3.25578795,9.6119091 2.12479198,11.7778353 1.23974205,14.2017158 C-0.43340259,18.772843 -0.411609903,22.4851605 1.29666989,24.9290546 C2.26399833,26.3135574 4.27515199,27.9649093 8.36906386,27.9680226 L8.38285107,27.9680226 C15.8355052,27.9680226 21.4015353,23.0815685 24.9221661,13.4478667 C25.8552489,10.8972329 27.0818658,6.14064543 24.8389981,2.927336" id="Fill-14" fill="#252525" mask="url(#mask-4)"></path>
                        </g>
                        <path d="M127.393998,0.404143152 C127.925473,0.824430682 128.382674,1.30342504 128.764269,1.8518002 C129.740492,3.25765087 130.112747,4.93035076 129.890373,6.84454921 L134.88668,6.84454921 L127.356639,27.5409304 L134.880453,27.5409304 L142.413162,6.84454921 L152.080665,6.84454921 L154.425825,0.404143152 L127.393998,0.404143152 Z" id="Fill-17" fill="#252525"></path>
                        <path d="M119.715056,9.05841933 C118.910061,11.2274588 117.462848,12.5683761 114.711188,12.5683761 L114.700514,12.5683761 L113.277763,12.5652629 L115.710538,6.00566419 L117.096375,6.00566419 C119.62833,6.00566419 120.573866,6.74572604 119.715056,9.05841933 M127.017385,3.06454098 C125.780094,1.2833224 123.261927,0.408946438 119.316561,0.404054202 L110.181867,0.404054202 L100.302219,27.5350597 L108.694183,27.5350597 L112.285973,17.9863049 C112.460315,18.3785733 114.578208,27.5350597 114.578208,27.5350597 L123.402467,27.5350597 C123.402467,27.5350597 121.796035,20.8069012 120.617451,18.0881524 C120.314577,17.3898969 119.997916,16.6066944 119.574515,15.9515796 C122.066442,15.0260575 125.676468,13.0380308 127.172157,9.01038647 C128.091453,6.53402566 128.037194,4.53354597 127.017385,3.06454098" id="Fill-19" fill="#252525"></path>
                        <path d="M50.004565,13.8281269 C47.6794188,20.1929256 45.9911527,21.7935762 43.4511928,21.7935762 L43.4467453,21.7935762 C40.9734977,21.7917972 40.1049035,20.2253923 42.42071,13.8912812 C44.1494483,9.1627129 46.3878685,6.13931118 49.0990567,6.13931118 L49.1008357,6.13931118 C51.6777097,6.14242442 52.2678912,7.63633533 50.004565,13.8281269 M57.9838016,2.929115 C56.6273181,0.990455375 54.307064,0.0048922358 51.0781884,0 C48.9665215,0 46.91623,0.486999836 44.9962498,1.39206346 C42.2463685,2.69295343 39.7562205,4.86332713 37.7214952,7.74307502 C36.4005915,9.61235385 35.2682613,11.7796143 34.3827666,14.2021605 C32.71318,18.774622 32.7314147,22.4869395 34.4401392,24.9308336 C35.4088019,26.3153364 37.4199556,27.9649093 41.5107542,27.9698016 L41.5263204,27.9698016 C48.9803088,27.9698016 54.5450046,23.0833475 58.0687486,13.4483115 C58.9987182,10.8976776 60.2284484,6.14109017 57.9838016,2.929115" id="Fill-21" fill="#252525"></path>
                        <path d="M87.7689785,0.388221148 L71.9141317,0.388221148 C67.4804319,0.388221148 64.1803964,2.63153364 62.6233312,6.8286272 L55.0924013,27.5187819 L63.3416004,27.5187819 L67.2118036,16.8826165 L74.5016797,16.887064 L76.5750982,11.1911673 L69.3079043,11.1867198 L70.4789276,7.88846338 C70.7230947,7.29694759 71.3052707,6.82729296 72.1582988,6.82729296 C72.6341799,6.82729296 77.9853964,6.8286272 80.7570703,6.8286272 C80.8264511,6.728114 80.8896054,6.61692682 80.9607652,6.51507936 C82.7806769,3.94131858 85.355772,1.85900513 87.7689785,0.388221148" id="Fill-23" fill="#252525"></path>
                        <path d="M94.9792445,13.8281269 C92.6540983,20.1929256 90.9671664,21.7935762 88.4289855,21.7935762 L88.4227591,21.7935762 C85.9463983,21.7917972 85.0826963,20.2253923 87.3953895,13.8912812 C89.1241278,9.1627129 91.364327,6.13931118 94.0724019,6.13931118 L94.0768494,6.13931118 C96.6523892,6.14242442 97.2425707,7.63633533 94.9792445,13.8281269 M102.958481,2.929115 C101.601998,0.990455375 99.2830778,0.0048922358 96.0528679,0 C93.9425353,0 91.8926885,0.486999836 89.9722636,1.39206346 C87.2223823,2.69295343 84.7322343,4.86332713 82.6975089,7.74307502 C81.375271,9.61235385 80.246054,11.7796143 79.3592251,14.2021605 C77.6874147,18.774622 77.7078732,22.4869395 79.417932,24.9308336 C80.3834814,26.3153364 82.3946351,27.9649093 86.4903259,27.9698016 L86.5023341,27.9698016 C93.9563225,27.9698016 99.5227973,23.0833475 103.041649,13.4483115 C103.976511,10.8976776 105.203128,6.14109017 102.958481,2.929115" id="Fill-25" fill="#252525"></path>
                    </g>
                    <rect id="Rectangle-Copy-39" x="0" y="0" width="192" height="105"></rect>
                </g>
            </g>
        </g>
    </g>
</svg>