<?xml version="1.0" encoding="UTF-8"?>
<svg width="192px" height="105px" viewBox="0 0 192 105" version="1.1" xmlns="http://www.w3.org/2000/svg" xmlns:xlink="http://www.w3.org/1999/xlink">
    <title>C9231F86-05EC-4F2D-8D47-9FADDA539408@3x</title>
    <defs>
        <polygon id="path-1" points="0 0 28.7853044 0 28.7853044 37.8355945 0 37.8355945"></polygon>
    </defs>
    <g id="Page-1" stroke="none" stroke-width="1" fill="none" fill-rule="evenodd">
        <g id="Cenefas" transform="translate(-400.000000, -2429.000000)">
            <g id="Group-2" transform="translate(400.000000, 2056.000000)">
                <g id="logo_6" transform="translate(0.000000, 373.000000)">
                    <g id="Group-24" transform="translate(37.000000, 16.000000)">
                        <path d="M105.549578,24.2296422 C104.610159,19.7258291 103.683306,15.2826237 102.756822,10.8394183 C102.718757,10.8320271 102.681062,10.8246359 102.642998,10.8172447 C101.028395,15.2715369 99.4134233,19.7258291 97.7807125,24.2296422 L105.549578,24.2296422 Z M117.085725,37.2270251 L108.271378,37.2270251 C107.948753,35.6770955 107.602846,34.1611654 107.329742,32.631931 C107.216657,31.9973986 107.0134,31.7512724 106.305325,31.7605114 C102.770865,31.8059671 99.2356655,31.7948804 95.7012052,31.7667939 C95.166084,31.7623592 94.9532182,31.9393779 94.7906123,32.4264564 C94.3035338,33.8836267 93.7709996,35.3260147 93.2262699,36.7624897 C93.1523581,36.9576168 92.9073406,37.2251774 92.739561,37.2266556 C89.5535946,37.2543725 86.3672586,37.2469813 83.089272,37.2469813 C83.6864791,35.8082889 84.2522736,34.4350084 84.826568,33.065054 C88.9345836,23.2639851 93.0440774,13.4632857 97.1532017,3.66295594 C98.0434688,1.5402102 99.3775761,0.651421294 101.672536,0.651421294 C104.230253,0.651051735 106.787969,0.651051735 109.411097,0.651051735 C109.666832,1.84620489 109.924415,3.02361922 110.170541,4.20325091 C112.192027,13.8890175 114.20871,23.5755231 116.23537,33.260181 C116.494801,34.5007899 116.801165,35.7314207 117.085725,36.9668558 L117.085725,37.2270251 Z" id="Fill-1" fill="#252525"></path>
                        <g id="Group-5" transform="translate(56.585845, 0.000000)">
                            <mask id="mask-2" fill="white">
                                <use xlink:href="#path-1"></use>
                            </mask>
                            <g id="Clip-4"></g>
                            <path d="M22.1010944,-0.00011086764 C23.2644655,0.215711471 24.4363364,0.393469253 25.5882512,0.659182029 C26.6389069,0.901612601 27.6681281,1.23938934 28.7853044,1.55757947 C28.2220968,4.19031635 27.6725628,6.76022823 27.1348548,9.27433674 C25.6614239,8.84195295 24.2526657,8.3445268 22.8047343,8.02485844 C20.8242687,7.58767038 18.7953909,7.42136892 16.8141862,7.97348977 C16.0089176,8.19781196 15.1936709,8.62871752 14.559508,9.17196895 C13.4718964,10.1036267 13.4574836,11.4451251 14.4963134,12.4233473 C15.2125184,13.0977921 16.0613949,13.6517607 16.9099019,14.1617519 C18.8382598,15.3214274 20.863442,16.3299533 22.7374746,17.5687144 C24.9448493,19.0277326 26.5546475,21.0336977 26.8927938,23.7455202 C27.4907399,28.5423934 25.7168577,32.3207625 21.6875581,34.9937813 C19.153863,36.6745347 16.2864563,37.4251087 13.2989429,37.7033864 C9.12736321,38.0914232 5.0381951,37.6243009 1.05250346,36.314954 C0.785312447,36.226999 0.525143053,36.1172401 0.2646041,36.0108071 C0.186996752,35.9790251 0.119367492,35.9224826 0,35.8482013 C0.563207609,33.2113992 1.12715434,30.5709016 1.70662253,27.8561227 C2.38624116,28.1528784 3.02409965,28.4500037 3.67563181,28.71276 C6.78990381,29.9674121 10.0058045,30.5417065 13.3388553,29.9171521 C14.2058402,29.7545462 15.0901944,29.3716833 15.8252469,28.8790614 C17.4202626,27.8099278 17.57326,25.8006367 16.1208939,24.5448759 C15.1663235,23.7192815 14.0188435,23.1095095 12.9312319,22.4472601 C11.2327397,21.4124955 9.42781451,20.5303586 7.82060329,19.3725309 C5.75994343,17.8876437 4.26766501,15.9082867 3.98458297,13.2777672 C3.56106858,9.33863997 5.02267363,6.14010857 8.04640372,3.65482565 C10.6772928,1.49253712 13.8008038,0.53279292 17.1283112,0.129604271 C17.3134602,0.107430743 17.4930657,0.0442361882 17.6756278,-0.00011086764 L22.1010944,-0.00011086764 Z" id="Fill-3" fill="#252525" mask="url(#mask-2)"></path>
                        </g>
                        <path d="M44.4106199,0.681022954 C43.9154111,1.87248052 43.446441,3.00850427 42.971558,4.1419411 C38.4352237,14.9637314 33.8929765,25.7829348 29.3751202,36.6124858 C29.160037,37.1283899 28.8965416,37.2636484 28.3732463,37.2595833 C25.5102743,37.235562 22.6465632,37.226323 19.7839607,37.2660898 C19.1771452,37.2739961 18.9790617,37.0614998 18.8393684,36.5167701 C16.4121062,27.0579126 13.9441926,17.6090333 11.5446473,8.14315421 C11.1041332,6.40659742 10.223105,5.22068324 8.57006854,4.4926524 C5.92033195,3.32595528 3.16970582,2.50627386 0.364384975,1.83995935 C0.240213219,1.81039464 0.116411022,1.77824303 0,1.74904788 C0.0140432343,0.65145825 0.0140432343,0.651088691 1.05804684,0.651088691 C6.06889459,0.651088691 11.0793728,0.649980015 16.0902205,0.651827809 C18.4668532,0.652566926 20.1823451,2.0332386 20.6317286,4.38548035 C21.90375,11.0449299 23.1487936,17.7095533 24.4052935,24.3719593 C24.4599882,24.6631716 24.5228132,24.9532753 24.6059639,25.3634856 C24.7356791,25.1192072 24.8265905,24.9821009 24.8857199,24.8324296 C27.9977746,16.9608271 31.1109379,9.0895943 34.2071015,1.21170939 C34.3763594,0.781912506 34.584421,0.635936781 35.0489565,0.639564182 C37.9555364,0.662545014 40.8621164,0.650719132 43.7686963,0.652197368 C43.9568017,0.652566926 44.1445376,0.668827514 44.4106199,0.681022954" id="Fill-6" fill="#252525"></path>
                        <path d="M40.6159532,37.2481639 C43.2335382,25.014659 45.8330148,12.8672613 48.4384043,0.69029888 L57.9327394,0.69029888 C57.5373115,2.54511449 57.1511226,4.3640829 56.7619771,6.1830513 C54.6111449,16.2409636 52.4521824,26.2973976 50.325002,36.3604837 C50.1771785,37.0596889 49.9295741,37.2817938 49.2037606,37.2677505 C46.6020667,37.2174905 43.9985249,37.2481639 41.3957223,37.2481639 L40.6159532,37.2481639 Z" id="Fill-8" fill="#252525"></path>
                        <path d="M10.8638461,67.2778467 C11.6661582,67.6751224 11.6661582,67.6751224 13.1613931,67.6607096 C17.0783468,67.6233841 20.1094681,65.4943559 21.5581386,61.8519844 C22.2665828,60.070711 22.5988162,58.222917 22.6239462,56.3366889 C22.6564674,53.8939052 21.9021978,51.7696813 19.5373911,50.6140709 C17.8448118,49.7869983 16.0539299,49.5866974 14.1141157,50.1443617 C13.0279824,55.8699361 11.9436969,61.5847934 10.8638461,67.2778467 M10.184597,73.6682574 C7.89333247,73.8127549 5.69963144,73.5267164 3.50703909,73.2713513 C2.35179828,73.1372014 2.32482049,73.0174644 2.5417515,71.8596367 C3.33888983,67.6119278 4.10461566,63.3579365 4.90766693,59.1113363 C5.55587307,55.684048 6.28649081,52.2719117 6.88221959,48.8361235 C7.07069458,47.7496206 7.40551485,46.6889869 7.48792646,45.5910277 C7.53855602,44.9158438 7.85563747,44.637566 8.4742789,44.4764384 C9.6923447,44.1589874 10.9429317,44.2262471 12.1750407,44.0980102 C14.9308407,43.8116021 17.7102924,43.8060587 20.4380059,44.2883329 C26.2659481,45.3190324 30.4973964,48.9551214 30.630068,55.7354167 C30.6951103,59.068098 30.011057,62.2123042 28.4906921,65.1599052 C25.9370408,70.1090366 21.639072,72.4993429 16.305969,73.3282633 C14.2523307,73.6471926 12.1890839,73.7924292 10.184597,73.6682574" id="Fill-10" fill="#252525"></path>
                        <path d="M68.2767641,60.5257857 C69.8913665,60.7449341 71.9871344,60.4625911 72.9564872,59.9392959 C73.4409788,59.6772787 73.7913205,59.336915 73.7580602,58.770751 C73.7296042,58.2862594 73.4509568,57.9410915 73.0008342,57.7053129 C71.1667139,56.7426123 68.3521541,58.4152354 68.2767641,60.5257857 M67.452648,65.9919299 C67.999595,67.3666886 69.0136644,67.8341805 70.0839066,67.9875474 C72.2997812,68.3049984 74.4968082,68.098415 76.6073585,67.2772554 C76.8191157,67.1948438 77.0186775,67.0632808 77.2370867,67.0185642 C77.6217974,66.9398482 77.9148576,67.1246276 77.8823364,67.5215337 C77.772947,68.8604453 78.0323773,70.1808789 78.0382902,71.5135079 C78.0408771,72.0974108 77.8350329,72.4869258 77.2810642,72.6864875 C73.7325606,73.965161 70.0876022,74.4045664 66.4045792,73.5357336 C63.2618512,72.7943987 61.4927732,70.6823701 60.6232014,67.5304032 C59.3777882,63.0173511 61.7788118,56.4188788 66.3783406,53.7924244 C69.4268311,52.0518024 72.6730356,51.4313132 76.0714983,52.5665978 C78.7049743,53.4461478 80.4614873,55.1597919 80.6507014,58.4555173 C80.8073943,61.1787961 79.5442423,63.4567565 76.870854,64.6016497 C74.8028029,65.4871126 72.6586228,65.9039749 70.425379,65.9449959 C69.4826345,65.9623652 68.5395204,65.9749302 67.452648,65.9919299" id="Fill-12" fill="#252525"></path>
                        <path d="M113.927328,46.9171525 C113.668637,48.7191212 113.129081,50.4767428 113.034104,52.3241673 C114.373385,52.7639422 115.69308,52.2946026 117.085577,52.6907696 C116.730801,54.4576302 116.383046,56.1901219 116.038617,57.9048747 C115.699362,58.3021504 115.257739,58.1746526 114.857877,58.1827829 C114.073673,58.1990435 113.2891,58.1942392 112.504896,58.1850003 C112.014122,58.1790873 111.693345,58.4119094 111.619433,58.8797708 C111.268352,61.1034061 110.570625,63.2649555 110.405063,65.5196337 C110.274978,67.2879726 110.544017,67.5599679 112.278356,67.5747502 C112.599873,67.5773371 112.922497,67.5814023 113.243274,67.6043149 C113.323469,67.6098583 113.39812,67.6911612 113.466118,67.7321823 C113.666789,67.9217659 113.654963,68.1653052 113.618746,68.3859318 C113.389989,69.7932117 113.131668,71.1953178 112.91215,72.6037063 C112.813478,73.2386084 112.491592,73.610015 111.855951,73.6898397 C110.117177,73.9078793 108.393554,74.0401814 106.62965,73.7626427 C104.312147,73.3978882 102.624002,71.4562263 102.643589,68.8870535 C102.655784,67.3023854 103.06156,65.791629 103.328012,64.254634 C103.635115,62.4870342 104.001348,60.7294126 104.347255,58.9688345 C104.383472,58.7847942 104.420058,58.6103624 104.305495,58.4156049 C103.708657,57.8919401 102.866802,58.4448001 102.29103,58.0818934 C101.962492,57.6484009 102.170554,57.2962113 102.235966,56.9447609 C102.446614,55.8135414 102.650241,54.6812133 102.874933,53.5525807 C103.074494,52.5495981 103.084842,52.5510764 104.132541,52.5192943 C104.500991,52.507838 104.869811,52.5059902 105.237892,52.486034 C105.323629,52.4812298 105.406411,52.4213612 105.544995,52.3644492 C105.966292,51.4690082 105.916771,50.4275915 106.171397,49.4560214 C106.349155,48.7786202 106.664389,48.5461677 107.335877,48.347345 C109.053956,47.838093 110.840773,47.580141 112.517091,46.9252828 C112.954649,46.7545466 113.403663,46.7186994 113.927328,46.9171525" id="Fill-14" fill="#252525"></path>
                        <path d="M100.728868,52.705515 C100.422873,54.6723069 99.642365,56.432885 99.1379172,58.3253956 C98.1386302,58.289918 97.2505804,58.0733565 96.3377702,58.0825955 C92.1410605,58.1243557 89.9650983,61.7024239 90.4030254,65.1448642 C90.6502603,67.0898521 92.7755929,68.377395 94.9297512,67.9494459 C95.7808451,67.7798184 96.6156784,67.5263011 97.6641167,67.2583709 C97.6641167,69.053318 97.6729861,70.7396148 97.6567255,72.4259116 C97.6533995,72.7777316 97.4150341,73.0493573 97.0879746,73.1435948 C93.4067994,74.2023807 89.7426239,74.5771134 86.2665538,72.5005625 C83.9538549,71.1191517 82.8788083,68.9066032 82.6208563,66.3115613 C82.0247579,60.3125133 85.371852,55.0721695 91.0368188,53.0170531 C94.1529386,51.8862031 97.3034273,51.6249251 100.728868,52.705515" id="Fill-16" fill="#252525"></path>
                        <path d="M52.688737,55.8754425 C54.1499725,54.0117575 55.8163131,52.5361092 58.1426858,52.1066819 C58.8707166,51.9721625 59.6830068,51.8546428 60.472754,52.3110479 C60.1523465,54.6455509 59.5640089,56.8987509 59.1209079,59.2132976 C58.1393597,59.3829251 57.2113976,59.2550578 56.3189131,59.5643785 C54.8946335,60.0577395 53.8491517,60.9413546 53.1174252,62.2366581 C52.0726825,64.0848217 51.8794033,66.1687638 51.4477586,68.188033 C51.0741346,69.9360462 50.9351805,71.7335802 50.3546037,73.5244621 L43.0229267,73.5244621 C44.2014497,66.5080187 45.8840509,59.6915067 46.312,52.6092819 L52.7016716,52.6092819 C52.8550385,53.6750895 52.5993038,54.7394188 52.688737,55.8754425" id="Fill-18" fill="#252525"></path>
                        <path d="M42.5114203,52.7377775 C42.5657455,53.6358054 42.3284887,54.5571154 42.1111881,55.4045138 C41.5051117,57.7693205 41.2434641,60.1925176 40.7120385,62.5691502 C40.0106159,65.7055957 39.5250157,68.8904534 38.942591,72.0538768 C38.8845703,72.3698495 38.8125063,72.6843441 38.7238122,72.9929257 C38.6114663,73.384658 38.3708835,73.6185887 37.927413,73.6171174 C35.9443605,73.6104584 33.9609384,73.6160018 31.9778859,73.6123062 C31.2328553,73.610828 31.2010733,73.1595967 31.3134192,72.5808676 C31.7602158,70.2774076 32.1948169,67.9713607 32.6272007,65.6649443 C33.0673452,63.3171372 33.4923378,60.9660041 33.9372866,58.6193058 C34.2713678,56.8587276 34.6427744,55.1051711 34.9635514,53.3427452 C35.0625932,52.797646 35.3050237,52.5153031 35.8671227,52.5204071 C37.9872815,52.5408026 40.1074403,52.5552154 42.2275992,52.5796063 C42.3059456,52.5803454 42.383553,52.6638657 42.5114203,52.7377775" id="Fill-20" fill="#252525"></path>
                        <path d="M40.1178249,43.2510553 C42.3784161,43.2506857 43.6375029,44.3471667 43.8111956,46.4695429 C43.9771275,48.493986 42.4430889,50.3765185 40.4079286,50.6414922 C40.2261057,50.6651439 40.0405871,50.6599701 39.8565469,50.6669917 C37.0793125,50.775642 36.133242,49.2186908 35.9713752,47.3265497 C35.797313,45.2891721 37.698693,43.3541622 39.70318,43.252164 C39.8410254,43.2447728 39.9796099,43.2510553 40.1178249,43.2510553" id="Fill-22" fill="#252525"></path>
                    </g>
                    <rect id="Rectangle-Copy-36" x="0" y="0" width="192" height="105"></rect>
                </g>
            </g>
        </g>
    </g>
</svg>