<?xml version="1.0" encoding="UTF-8"?>
<svg width="192px" height="105px" viewBox="0 0 192 105" version="1.1" xmlns="http://www.w3.org/2000/svg" xmlns:xlink="http://www.w3.org/1999/xlink">
    <title>CF0F2750-8B28-4D15-B32D-304AD06DFF3C@3x</title>
    <defs>
        <polygon id="path-1" points="0 0 40.7395037 0 40.7395037 41.5706335 0 41.5706335"></polygon>
    </defs>
    <g id="Page-1" stroke="none" stroke-width="1" fill="none" fill-rule="evenodd">
        <g id="Cenefas" transform="translate(-1220.000000, -2608.000000)">
            <g id="Group-2" transform="translate(400.000000, 2056.000000)">
                <g id="logo_14" transform="translate(820.000000, 552.000000)">
                    <g id="Group-10" transform="translate(33.000000, 28.000000)">
                        <path d="M71.9166128,18.1011986 C70.7330373,19.3425094 69.0587111,20.0353341 67.3266495,19.9775987 L59.5323722,19.9775987 L59.5323722,7.33354888 L67.3266495,7.36241657 C69.0587111,7.30468119 70.7330373,7.99750583 71.9166128,9.26768435 L72.0320836,9.38315512 C74.3992344,11.8369091 74.3703667,15.7340477 71.9166128,18.1011986 M75.2075298,6.03450267 C73.0424528,3.95602873 70.1845512,2.83018868 67.2111787,2.88792407 L54.8846736,2.88792407 L54.8846736,39.0880118 L59.5323722,39.0880118 L59.5323722,24.4232235 L67.2400464,24.4232235 C70.386625,24.4232235 73.0424528,23.3839865 75.2075298,21.3343803 C77.3726069,19.3713771 78.58505,16.5712108 78.5273146,13.6555738 C78.58505,10.7688044 77.3726069,7.96863814 75.2075298,6.03450267" id="Fill-1" fill="#252525"></path>
                        <polygon id="Fill-3" fill="#252525" points="120.818486 14.3483984 113.63043 32.1308977 113.514959 32.1308977 106.153697 14.3483984 101.101851 14.3483984 111.321015 37.5291564 105.547476 50 110.339513 50 125.870332 14.3195307"></polygon>
                        <path d="M93.5962507,33.5742823 C92.2106014,34.9599316 90.3342013,35.7393594 88.3711981,35.7393594 C87.0721519,35.7682271 85.8019734,35.3352117 84.7627364,34.5269162 C83.8101025,33.8340916 83.2327487,32.7082515 83.2327487,31.4958084 C83.2327487,30.1390268 83.8678379,29.0131868 85.1091487,28.0894206 C86.3793273,27.1945221 87.9670504,26.732639 89.8434505,26.732639 C92.4415429,26.732639 94.4622815,27.3099928 95.9056662,28.4647006 C95.9056662,30.4277037 95.1262384,32.1308977 93.5962507,33.5742823 M97.3779185,16.2536662 C95.3860477,14.4350015 92.6724845,13.5112353 89.2372289,13.5112353 C84.8204718,13.5112353 81.5006871,15.1278261 79.2778746,18.3321401 L83.3770871,20.9013649 C84.9070749,18.7074202 86.9566811,17.6104478 89.5547736,17.6104478 C91.2002321,17.6104478 92.7879552,18.2166694 94.0292661,19.3136417 C95.2417092,20.324011 95.9345338,21.8251311 95.9345338,23.4128542 L95.9345338,24.4809589 C94.1447368,23.4994573 91.8930567,22.9798388 89.1217582,22.9798388 C85.8885765,22.9798388 83.2904841,23.7303988 81.3563486,25.2603866 C79.4222131,26.7903744 78.4407115,28.8111129 78.4407115,31.3803376 C78.3829761,33.7186208 79.3933454,35.9414332 81.1831424,37.4425533 C83.0018071,39.0591441 85.3112226,39.8674396 88.0247858,39.8674396 C91.2290998,39.8674396 93.7694568,38.4529226 95.7035923,35.6238886 L95.9056662,35.6238886 L95.9056662,39.0591441 L100.351291,39.0591441 L100.351291,23.8170019 C100.351291,20.6126879 99.3697894,18.1011986 97.3779185,16.2536662" id="Fill-5" fill="#252525"></path>
                        <g id="Group-9">
                            <mask id="mask-2" fill="white">
                                <use xlink:href="#path-1"></use>
                            </mask>
                            <g id="Clip-8"></g>
                            <path d="M20.7919274,17.0330939 L20.7919274,25.029445 L32.0214602,25.029445 C31.5595771,27.5986698 30.0584571,29.9080853 27.8645124,31.3514699 C25.9881123,32.6216485 23.5920937,33.3433408 20.7919274,33.3433408 C15.364801,33.3433408 10.7748378,29.6771437 9.12937923,24.7696358 C8.26594651,22.2079167 8.26392578,19.4169881 9.12216231,16.8255352 L9.12937923,16.8310201 C10.7748378,11.8946445 15.364801,8.22844738 20.7919274,8.22844738 C23.7652999,8.17071199 26.6232015,9.29655204 28.7594109,11.3461583 L34.6772881,5.4282811 C30.9244879,1.87755479 25.9592446,-0.0565806794 20.7919274,0.00115470774 C12.9399148,0.00115470774 5.75185908,4.44677952 2.23000046,11.4616291 C-0.743371978,17.3223482 -0.743371978,24.24944 2.23000046,30.1101591 L2.23000046,30.1390268 C5.75185908,37.1250087 12.9399148,41.5706335 20.7919274,41.5706335 C26.39226,41.5706335 31.1265617,39.7231011 34.5618173,36.5476548 C38.4878236,32.9391931 40.7395037,27.5986698 40.7395037,21.2477772 C40.7395037,19.8332602 40.6240329,18.4187432 40.3930914,17.0330939 L20.7919274,17.0330939 Z" id="Fill-7" fill="#252525" mask="url(#mask-2)"></path>
                        </g>
                    </g>
                    <rect id="Rectangle-Copy-44" x="0" y="0" width="192" height="105"></rect>
                </g>
            </g>
        </g>
    </g>
</svg>