<?xml version="1.0" encoding="UTF-8"?>
<svg width="192px" height="105px" viewBox="0 0 192 105" version="1.1" xmlns="http://www.w3.org/2000/svg" xmlns:xlink="http://www.w3.org/1999/xlink">
    <title>4A30C2A8-2E9F-4B59-A437-EF25D9EB2CBD@3x</title>
    <defs>
        <polygon id="path-1" points="4.19142471e-16 -5.96113736e-15 14.6072869 -5.96113736e-15 14.6072869 8.03090153 4.19142471e-16 8.03090153"></polygon>
        <polygon id="path-3" points="0 -2.98056868e-15 5.53375048 -2.98056868e-15 5.53375048 9.10558255 0 9.10558255"></polygon>
        <polygon id="path-5" points="0 -2.98056868e-15 5.53563813 -2.98056868e-15 5.53563813 9.10558255 0 9.10558255"></polygon>
        <polygon id="path-7" points="2.38445495e-14 0 2.09576451 0 2.09576451 2.09178438 2.38445495e-14 2.09178438"></polygon>
    </defs>
    <g id="Page-1" stroke="none" stroke-width="1" fill="none" fill-rule="evenodd">
        <g id="Cenefas" transform="translate(-1329.000000, -2262.000000)">
            <g id="Group-2" transform="translate(400.000000, 2056.000000)">
                <g id="logo_5" transform="translate(929.000000, 206.000000)">
                    <g id="Group-63" transform="translate(14.000000, 32.000000)">
                        <path d="M29.5539903,12.4167721 C29.5361625,11.849009 29.2679065,11.5539064 28.7460761,11.5344007 L25.9645192,11.5344007 C25.3053099,11.5746705 24.9670011,11.9366798 24.949383,12.6158143 L24.949383,17.6201839 C24.9670011,18.3209215 25.3411752,18.6783165 26.0737931,18.7001293 L28.6231692,18.7001293 C28.8880694,18.7001293 29.1080854,18.6017618 29.2836369,18.399993 C29.4665292,18.2496102 29.5539903,18.056231 29.5539903,17.8169189 L29.5539903,12.4167721 Z M21.37753,11.7070158 C21.3961967,10.4557136 21.6751494,9.50307967 22.2156465,8.85288915 C22.4981648,8.57980914 22.8540917,8.3514035 23.2846856,8.16284825 C23.7326878,7.96233789 24.1668473,7.86669696 24.5884224,7.86669696 L29.6940959,7.86669696 C31.9473206,7.88515398 33.0918656,9.1169504 33.1294089,11.5637641 L33.1294089,19.0961163 C33.1120006,19.9648548 32.7724333,20.7192855 32.1125948,21.3499703 C31.4619848,22.0123257 30.6844828,22.3500052 29.7786206,22.3697207 L24.949383,22.3697207 L24.949383,27.7998602 L21.37753,27.7998602 L21.37753,11.7070158 Z" id="Fill-1" fill="#252525"></path>
                        <path d="M39.5765931,17.9737197 C39.5765931,18.1828294 39.6726535,18.349362 39.862677,18.4718495 C40.0308875,18.6222323 40.2423043,18.7000454 40.5095117,18.7000454 L43.2541546,18.7000454 C43.8749816,18.7000454 44.1963016,18.4596847 44.2147586,17.9737197 L44.2147586,16.9483064 C44.2147586,16.3893523 43.8877757,16.1076729 43.228147,16.1076729 L40.5095117,16.1076729 C40.1529556,16.1076729 39.9065124,16.167029 39.7685042,16.2786101 C39.6416122,16.4126333 39.5765931,16.6737582 39.5765931,17.0613556 L39.5765931,17.9737197 Z M44.2147586,12.3292271 C44.2323767,11.779921 43.9137833,11.5175377 43.2528961,11.5355752 L36.0588527,11.5355752 L36.0588527,7.86661307 L44.1600168,7.86661307 C46.5187402,7.90415633 47.7167686,9.04513581 47.756619,11.2952145 L47.756619,18.9710281 C47.7369036,19.942958 47.4397036,20.7422729 46.8633411,21.3792498 C46.2599224,22.0386689 45.4824204,22.3704758 44.5291572,22.3704758 L39.6311252,22.3704758 C37.2493306,22.3501311 36.0410249,21.2624253 36.0034817,19.0985493 L36.0034817,16.1368267 C36.0221484,13.8768903 37.1771804,12.7285699 39.4622855,12.6889293 L44.2147586,12.6889293 L44.2147586,12.3292271 Z" id="Fill-3" fill="#252525"></path>
                        <path d="M57.7907995,24.1312336 C58.0747859,24.1123571 58.3182927,24.0108435 58.5185934,23.8287902 C58.7098752,23.6582725 58.8059356,23.4625861 58.8059356,23.2408921 L58.8059356,22.9013249 L58.8059356,22.3704758 L54.2323697,22.3704758 C53.6352431,22.3704758 53.1576677,22.2937113 52.8017408,22.1422799 C52.4275667,22.0044814 52.0515049,21.7483903 51.6760723,21.3838641 C51.3178383,20.9964764 51.0613276,20.5918901 50.9059111,20.1688468 C50.7431538,19.7839759 50.6592582,19.2904604 50.6592582,18.7000454 L50.6592582,7.86535463 L54.2323697,7.86535463 L54.2323697,17.5364142 C54.2323697,18.3126577 54.5488657,18.7000454 55.1891984,18.7000454 L57.7113084,18.7000454 C58.0108155,18.7000454 58.2719404,18.6016779 58.4898591,18.4001189 C58.7002272,18.2310693 58.8059356,18.02972 58.8059356,17.7912469 L58.8059356,17.3952599 L58.8059356,7.86535463 L62.347796,7.86535463 L62.347796,23.8489251 C62.3278708,25.0312231 62.0243786,25.9786136 61.4394169,26.6965498 C60.8445975,27.4151152 60.0335372,27.7817387 58.9986856,27.7997763 L50.6592582,27.7997763 L50.6592582,24.1312336 L57.7907995,24.1312336 Z" id="Fill-5" fill="#252525"></path>
                        <path d="M65.1527598,18.7001293 L71.5185444,18.7001293 C72.1009893,18.6793652 72.4034327,18.446555 72.4204216,17.999182 L72.4204216,17.6701017 C72.4204216,17.5738316 72.3921068,17.4685427 72.337365,17.354235 C72.1945328,17.0769602 72.0202398,16.939791 71.8125983,16.939791 L71.4315028,16.939791 L68.6560282,16.939791 C67.7205929,16.9202852 66.9204391,16.5985458 66.2486454,15.9747824 C65.569511,15.4003076 65.2209249,14.6920194 65.2024679,13.8612438 L65.2024679,11.1249904 C65.2383333,8.98942916 66.3977698,7.90298179 68.6832943,7.86669696 L76.0661027,7.86669696 L76.0661027,11.5344007 L69.8121089,11.5344007 C69.076345,11.5344007 68.7072045,11.7602894 68.7072045,12.2087112 L68.7072045,12.5648478 C68.7072045,13.0300486 69.0855735,13.263488 69.8383263,13.263488 L72.9841997,13.263488 C73.822526,13.2825742 74.5366868,13.6034747 75.1327647,14.2291257 C75.734925,14.8606495 76.045758,15.6094173 76.0661027,16.4804628 L76.0661027,19.1573601 C76.045758,19.9103226 75.6992694,20.6599294 75.0295732,21.4095361 C74.7021708,21.7763694 74.3688957,22.028895 74.0358304,22.1727759 C73.6895515,22.3040724 73.2207851,22.3697207 72.6211417,22.3697207 L65.1527598,22.3697207 L65.1527598,18.7001293 Z" id="Fill-7" fill="#252525"></path>
                        <path d="M82.1787744,17.9737197 C82.1787744,18.1828294 82.2750446,18.349362 82.4688433,18.4718495 C82.6343273,18.6222323 82.8486804,18.7000454 83.1121124,18.7000454 L85.8601112,18.7000454 C86.4824064,18.7000454 86.801629,18.4596847 86.8205055,17.9737197 L86.8205055,16.9483064 C86.8205055,16.3893523 86.4880694,16.1076729 85.8313769,16.1076729 L83.1121124,16.1076729 C82.7549271,16.1076729 82.5099521,16.167029 82.3727829,16.2786101 C82.2463103,16.4126333 82.1787744,16.6737582 82.1787744,17.0613556 L82.1787744,17.9737197 Z M86.8205055,12.3292271 C86.8358164,11.779921 86.5155451,11.5175377 85.8565456,11.5343168 L78.6627119,11.5343168 L78.6627119,7.86661307 L86.7649247,7.86661307 C89.1236481,7.90289789 90.3199986,9.04366763 90.3577516,11.2952145 L90.3577516,18.9710281 C90.3390848,19.942958 90.0389485,20.7422729 89.4655224,21.3792498 C88.865879,22.0386689 88.0869088,22.3696368 87.1328067,22.3696368 L82.233726,22.3696368 C79.8510924,22.3501311 78.6421575,21.2624253 78.6083896,19.0985493 L78.6083896,16.1368267 C78.6245394,13.8768903 79.7776838,12.7275212 82.0671933,12.6889293 L86.8205055,12.6889293 L86.8205055,12.3292271 Z" id="Fill-9" fill="#252525"></path>
                        <path d="M93.2614605,5.7840948 C93.2841123,4.79391757 93.6486384,3.99837802 94.3655259,3.40167092 C95.0591324,2.79657427 95.9698186,2.48574125 97.098004,2.46749397 L99.3667494,2.46749397 L99.3667494,6.01396861 L97.99275,6.01396861 C97.2372706,6.02948929 96.8517705,6.39149858 96.8368791,7.09034852 L96.8368791,7.86659209 L99.3667494,7.86659209 L99.3667494,11.5393295 L96.8368791,11.5393295 L96.8368791,22.371923 L93.2614605,22.371923 L93.2614605,5.7840948 Z" id="Fill-11" fill="#252525"></path>
                        <path d="M109.526668,12.2599923 L109.526668,12.1746286 C109.526668,11.9862831 109.451162,11.8260426 109.295956,11.7071206 C109.129842,11.5913448 108.925766,11.5342958 108.68163,11.5342958 L106.194337,11.5342958 C105.876373,11.5342958 105.618814,11.6242738 105.419771,11.808005 C105.172489,11.9768448 105.046646,12.1989583 105.046646,12.4749747 L105.046646,13.9471318 L109.526668,12.2599923 Z M105.103695,17.4487223 L105.103695,17.6758695 C105.103695,17.9709721 105.17962,18.2031531 105.335247,18.3722026 C105.447876,18.5894921 105.598679,18.7000245 105.799399,18.7000245 L106.250757,18.7000245 L113.138162,18.7000245 L113.138162,22.3698256 L105.335247,22.3698256 C104.623603,22.3698256 104.068634,22.3022896 103.676632,22.1701542 C103.247506,22.0289999 102.863264,21.7974482 102.527263,21.4775964 C102.134212,21.0889503 101.866375,20.6938022 101.732352,20.2869088 C101.585325,19.8628168 101.512126,19.2992484 101.512126,18.5983011 L101.482553,11.2526165 C101.521984,9.03274024 102.680582,7.90308666 104.960024,7.86533366 L109.773741,7.86533366 C111.999699,7.90308666 113.127465,9.0730101 113.162701,11.3763624 L113.162701,14.2791485 L105.103695,17.4487223 Z" id="Fill-13" fill="#252525"></path>
                        <path d="M120.723935,22.3705597 C120.182808,22.3705597 119.689083,22.3206418 119.241081,22.2296151 C118.772314,22.1532702 118.304387,21.9343028 117.826182,21.5674695 C117.334974,21.1410704 116.996665,20.6622365 116.811256,20.1326459 C116.61515,19.6124934 116.520768,19.0245954 116.520768,18.3611913 L116.520768,11.5123781 C116.500003,10.9538435 116.556214,10.4628448 116.686671,10.0389625 C116.80769,9.61256336 117.059167,9.19811934 117.440892,8.79227462 C117.875052,8.36356836 118.319278,8.08042088 118.787835,7.94094452 C119.238774,7.82789527 119.746132,7.77042682 120.315783,7.77042682 L125.790387,7.77042682 L125.790387,8.62846856 L120.441626,8.62846856 C119.49864,8.62846856 118.755745,8.82289649 118.213151,9.21154263 C117.657552,9.63563463 117.375244,10.3657357 117.375244,11.3947146 L117.375244,18.2481421 C117.375244,18.7307512 117.448443,19.1980494 117.594631,19.6512951 C117.745852,20.0972 117.994812,20.4860559 118.354305,20.8277205 C118.742741,21.1240815 119.130758,21.3073933 119.508498,21.3837382 C119.903017,21.4688922 120.325221,21.5102108 120.772804,21.5102108 L125.87617,21.5102108 L125.87617,22.3705597 L120.723935,22.3705597 Z" id="Fill-15" fill="#252525"></path>
                        <path d="M139.872234,13.484322 L132.693502,13.484322 C131.834201,13.5040375 131.162408,13.7699864 130.675394,14.2815395 C130.174328,14.8002237 129.925997,15.5143846 129.925997,16.4198273 L129.925997,18.6055161 C129.925997,19.0304471 129.970042,19.4172056 130.061279,19.7657916 C130.152096,20.1326249 130.377145,20.4606565 130.733282,20.7435942 C131.354319,21.2574545 132.039536,21.5110288 132.789772,21.5110288 L137.139337,21.5110288 C138.956934,21.4925717 139.872234,20.534904 139.872234,18.6334114 L139.872234,13.484322 Z M140.724403,18.4194778 C140.724403,18.9700423 140.683714,19.4557975 140.612612,19.8798895 C140.495368,20.3440417 140.258783,20.7912049 139.898032,21.2150872 C139.148006,22.0045443 138.219072,22.3900444 137.110602,22.3696997 L132.841577,22.3696997 C131.733107,22.3696997 130.834166,22.0387318 130.137414,21.3793128 C129.426609,20.7268151 129.065648,19.8217919 129.065648,18.6587898 L129.065648,16.4527563 C129.102353,13.9608487 130.344007,12.6847974 132.788513,12.6277485 L139.898032,12.6277485 L139.898032,11.661062 C139.898032,10.8651029 139.667948,10.1675114 139.209249,9.56744853 C138.917503,9.17859265 138.573321,8.91977488 138.182368,8.78386409 C137.78743,8.68046282 137.343203,8.62865732 136.847799,8.62865732 L129.091866,8.62865732 L129.091866,7.77040584 L136.444681,7.77040584 C137.117524,7.77040584 137.725976,7.81801657 138.276331,7.91156011 C138.558849,7.96756039 138.816199,8.07704408 139.055091,8.23602615 C139.304681,8.38766735 139.539798,8.611249 139.757717,8.90173734 C140.416926,9.75201874 140.739714,10.7338064 140.724403,11.83934 L140.724403,18.4194778 Z" id="Fill-17" fill="#252525"></path>
                        <path d="M148.752746,8.62857343 C146.761065,8.66611668 145.780326,9.75214458 145.81745,11.8906422 L145.81745,22.3698256 L144.961296,22.3698256 L144.961296,11.893998 C144.921656,9.14327263 146.230426,7.77199986 148.889076,7.77199986 L149.840032,7.77199986 L149.840032,8.62857343 L148.752746,8.62857343 Z" id="Fill-19" fill="#252525"></path>
                        <path d="M163.21162,8.63318768 L156.446073,8.63318768 C155.95843,8.63318768 155.521544,8.68792953 155.127235,8.79112105 C154.715727,8.88466459 154.317013,9.13530255 153.945566,9.54198623 C153.588171,9.91238508 153.364589,10.2794281 153.268319,10.6466809 C153.143944,11.01687 153.087105,11.4629846 153.108078,11.9804104 L153.108078,18.6624812 C153.108078,19.7728388 153.429189,20.5297864 154.081896,20.9345824 C154.403216,21.1239766 154.756207,21.2651309 155.153452,21.3597231 C155.549229,21.4643828 155.988422,21.5163981 156.473758,21.5163981 L159.430867,21.5163981 C160.534932,21.5163981 161.439746,21.2624043 162.133771,20.7487538 C162.831782,20.2686615 163.187919,19.4374664 163.21162,18.2541196 L163.21162,8.63318768 Z M164.066305,18.3126368 C163.99059,21.0778341 162.525564,22.4323278 159.675422,22.375069 L156.50438,22.375069 C155.834055,22.375069 155.23567,22.3173908 154.70545,22.2062292 C154.160548,22.0640263 153.637879,21.7326389 153.136813,21.2137449 C152.758234,20.7487538 152.515986,20.2783095 152.418876,19.7959101 C152.28779,19.3151886 152.230741,18.779096 152.251085,18.1945538 L152.251085,11.9585975 C152.28779,9.14956479 153.703108,7.75375258 156.498298,7.77556542 L163.21162,7.77556542 L163.21162,3.04092005 L164.066305,3.04092005 L164.066305,18.3126368 Z" id="Fill-21" fill="#252525"></path>
                        <g id="Group-25" transform="translate(0.383211, 0.000000)">
                            <mask id="mask-2" fill="white">
                                <use xlink:href="#path-1"></use>
                            </mask>
                            <g id="Clip-24"></g>
                            <path d="M1.15117578,7.31380431 C1.43117718,7.18984864 1.71264675,7.09378823 1.9918092,7.0331737 C2.50839605,4.571888 4.68800244,2.72387877 7.30302673,2.72387877 C9.91826076,2.72387877 12.100384,4.57419513 12.6142443,7.03548083 C13.4179636,7.18754151 14.081158,7.51326598 14.5987935,7.99524592 C14.6199771,7.52270423 14.6013104,7.0671514 14.5453101,6.63844514 C14.2130837,2.91830671 11.0942666,-1.19222747e-14 7.29212031,-1.19222747e-14 C3.37587603,-1.19222747e-14 0.189523042,3.10266718 0.023619592,6.98241689 C0.000548315724,7.31736987 -0.0059535894,7.66616562 0.00558204873,8.03090153 C0.333613649,7.75488517 0.709675452,7.50571538 1.15117578,7.31380431" id="Fill-23" fill="#252525" mask="url(#mask-2)"></path>
                        </g>
                        <path d="M11.9362394,7.86539658 L3.21110218,7.86539658 C2.79057573,7.86539658 2.35641626,7.96229594 1.90862376,8.16280631 C1.47677142,8.35261999 1.12126403,8.57976719 0.8389555,8.85179851 C0.296570769,9.50303772 0.0188764988,10.454623 0,11.7059251 L0,18.527682 C0.0188764988,19.781501 0.296570769,20.7314084 0.8389555,21.3803405 C1.12126403,21.6557276 1.47677142,21.8851819 1.90862376,22.0741567 C2.35641626,22.2711015 2.79057573,22.3705177 3.21110218,22.3705177 L11.9362394,22.3705177 C14.1892544,22.350173 15.3361065,21.1141818 15.3719719,18.6709337 L15.3719719,11.5647709 C15.3361065,9.11690845 14.1892544,7.88616073 11.9362394,7.86539658" id="Fill-26" fill="#252525"></path>
                        <g id="Group-30" transform="translate(65.308491, 32.894417)">
                            <mask id="mask-4" fill="white">
                                <use xlink:href="#path-3"></use>
                            </mask>
                            <g id="Clip-29"></g>
                            <path d="M1.69280246,4.5427343 C1.73034572,4.78582165 1.85262348,4.8999196 2.10934387,4.93578495 C2.13451253,4.94606215 2.17205579,4.94606215 2.20813088,4.94606215 L3.41014437,4.94606215 L3.48397245,4.94606215 C3.60771839,4.91963505 3.6924529,4.87244381 3.75222848,4.80134233 C3.81410144,4.69898976 3.85038627,4.61131891 3.85038627,4.55196281 L3.85038627,2.07746356 L3.85038627,2.02670675 C3.81410144,1.83123012 3.74174153,1.74125214 3.53410005,1.69510959 C3.50935086,1.68420317 3.49466914,1.68420317 3.47327577,1.68420317 L2.15695459,1.68420317 C1.94910337,1.68420317 1.82913273,1.76851819 1.74251057,1.96735065 C1.69280246,2.06445975 1.68063761,2.12528402 1.68063761,2.18464012 L1.68063761,4.44394729 C1.68063761,4.47918342 1.68063761,4.50351313 1.69280246,4.5427343 M0,9.10560352 L0,1.76851819 C0,1.64561121 0.0106966826,1.5354983 0.023490754,1.42559513 C0.135491313,0.553500891 0.47736568,0.175131961 1.27626105,0.0289439648 C1.34966966,0.0140525046 1.43545286,-2.98056868e-15 1.50865173,-2.98056868e-15 L3.91246898,-2.98056868e-15 C4.03474674,-2.98056868e-15 4.14632782,0.0140525046 4.25706995,0.0390114308 C5.10315657,0.186667599 5.53375048,0.726535463 5.53375048,1.69510959 L5.53375048,5.12916419 C5.53375048,5.39888838 5.43433425,5.69273255 5.22648303,5.96476387 C5.16146398,6.04089908 5.10315657,6.10969343 5.0412836,6.17051771 C4.72352921,6.46687874 4.35292061,6.62711924 3.9611284,6.62711924 L1.68063761,6.62711924 L1.68063761,9.10560352 C1.66784353,9.05631489 0,9.10560352 0,9.10560352" id="Fill-28" fill="#252525" mask="url(#mask-4)"></path>
                        </g>
                        <path d="M73.7611773,37.7294229 C73.8098368,37.8013633 73.8941518,37.8521201 74.0189464,37.8781277 C74.0533436,37.8890342 74.0783025,37.8890342 74.1030517,37.8890342 L75.4160171,37.8890342 C75.5752089,37.8890342 75.6735764,37.8521201 75.7495019,37.768644 C75.808019,37.6958646 75.8459818,37.6084035 75.8459818,37.5073094 L75.8459818,37.0431573 C75.8459818,36.8342573 75.8327682,36.8099276 75.6358234,36.7117698 C75.5873737,36.6765337 75.5255008,36.6629007 75.403223,36.6629007 L74.0048939,36.6629007 L73.9319048,36.6765337 C73.7722935,36.7004439 73.7005628,36.7746915 73.6728773,36.9947076 L73.6728773,37.0930751 L73.6728773,37.5073094 C73.6728773,37.5582759 73.7005628,37.6591603 73.7611773,37.7294229 M71.9934981,38.0251547 L71.9934981,36.6765337 C71.9934981,35.6802741 72.6095012,35.1034922 73.6105848,35.1034922 L75.8577271,35.1034922 L75.8459818,34.7484042 C75.8459818,34.5894222 75.7344007,34.5285979 75.4908938,34.4918936 L75.403223,34.4918936 L72.018457,34.4918936 L72.018457,32.8951515 L75.8327682,32.8951515 C75.9311357,32.8951515 76.0286643,32.9085748 76.1261929,32.9224176 C76.9760548,33.0220436 77.3691055,33.3752438 77.4997728,34.1617646 C77.5270388,34.2595029 77.5270388,34.3580802 77.5270388,34.4526724 L77.5270388,37.9616038 C77.5270388,38.0587129 77.5270388,38.1728109 77.4997728,38.2680323 C77.3556822,39.0312721 76.7671549,39.5231097 76.0058028,39.5231097 L73.7005628,39.5231097 C72.7177264,39.5231097 72.1648548,39.0908379 72.018457,38.3175307 C72.0293634,38.2197924 71.9934981,38.0251547 71.9934981,38.0251547" id="Fill-31" fill="#252525"></path>
                        <path d="M78.6781487,42 L78.6781487,40.3189429 L82.0423603,40.3189429 C82.0780159,40.3189429 82.1168176,40.3189429 82.1388401,40.3082462 C82.3729087,40.2581186 82.4836509,40.1205299 82.5186772,39.9156151 L82.5186772,39.7639739 L82.5186772,39.5215157 L80.3487188,39.5215157 C79.6754571,39.5215157 79.3176425,39.3495298 78.913266,38.7748453 C78.7540742,38.5401475 78.6781487,38.2821687 78.6781487,37.8404586 L78.6781487,32.8952354 L80.3587863,32.8952354 L80.3587863,37.3150627 C80.3587863,37.6701507 80.5183976,37.8404586 80.8151781,37.8404586 L82.0046073,37.8404586 C82.0285175,37.8404586 82.0671094,37.8404586 82.1019261,37.8301814 C82.3345265,37.7928479 82.4836509,37.6435138 82.5186772,37.4237075 L82.5186772,37.2525606 L82.5186772,32.8952354 L84.186311,32.8952354 L84.186311,40.1947775 C84.186311,40.3082462 84.186311,40.4177299 84.1651274,40.5263747 C84.0529171,41.3372252 83.6359562,41.802426 82.9503199,41.9639249 C82.8381096,41.9865767 82.716461,42 82.6052994,42 L78.6781487,42 Z" id="Fill-33" fill="#252525"></path>
                        <path d="M87.0018457,37.8029573 L87.0018457,34.4637047 C87.0018457,33.5215577 87.3812633,33.0563568 88.1291922,32.9231727 C88.2160241,32.907652 88.3131331,32.8952774 88.3989163,32.8952774 L91.4522949,32.8952774 L91.4522949,34.5786416 L89.1835495,34.5786416 C88.8282518,34.5786416 88.7296746,34.6254134 88.6812249,34.8466879 L88.6812249,35.0578949 L88.6812249,37.3736218 C88.6812249,37.4732478 88.7063935,37.5714056 88.7657496,37.6450239 C88.8513231,37.7782081 88.9784249,37.8405006 89.1481036,37.8405006 L91.4522949,37.8405006 L91.4522949,39.5213479 L88.7558919,39.5213479 C87.5538784,39.5213479 87.0018457,38.968686 87.0018457,37.8029573" id="Fill-35" fill="#252525"></path>
                        <path d="M94.190331,37.7294229 C94.2387807,37.8013633 94.3224665,37.8521201 94.4478904,37.8781277 C94.4820778,37.8890342 94.5091341,37.8890342 94.5345125,37.8890342 L95.8453805,37.8890342 C96.0075087,37.8890342 96.1029398,37.8521201 96.1784458,37.768644 C96.236963,37.6958646 96.2770231,37.6084035 96.2770231,37.5073094 L96.2770231,37.0431573 C96.2770231,36.8342573 96.2619219,36.8099276 96.0656063,36.7117698 C96.0167372,36.6765337 95.9567518,36.6629007 95.8332156,36.6629007 L94.436145,36.6629007 L94.3610585,36.6765337 C94.2006082,36.7004439 94.1269899,36.7746915 94.1049673,36.9947076 L94.1049673,37.0930751 L94.1049673,37.5073094 C94.1049673,37.5582759 94.1269899,37.6591603 94.190331,37.7294229 M92.4224421,38.0251547 L92.4224421,36.6765337 C92.4224421,35.6802741 93.0348796,35.1034922 94.040158,35.1034922 L96.289188,35.1034922 L96.2770231,34.7484042 C96.2770231,34.5894222 96.165442,34.5285979 95.9198378,34.4918936 L95.8332156,34.4918936 L92.4463523,34.4918936 L92.4463523,32.8951515 L96.2619219,32.8951515 C96.3600797,32.8951515 96.458657,32.9085748 96.5559758,32.9224176 C97.4054183,33.0220436 97.7974202,33.3752438 97.9314434,34.1617646 C97.956612,34.2595029 97.956612,34.3580802 97.956612,34.4526724 L97.956612,37.9616038 C97.956612,38.0587129 97.956612,38.1728109 97.9314434,38.2680323 C97.782319,39.0312721 97.197567,39.5231097 96.4362149,39.5231097 L94.1269899,39.5231097 C93.1456217,39.5231097 92.5933792,39.0908379 92.4463523,38.3175307 C92.4599853,38.2197924 92.4224421,38.0251547 92.4224421,38.0251547" id="Fill-37" fill="#252525"></path>
                        <path d="M98.9354633,39.5214318 L98.9354633,37.8403747 L101.853351,37.8403747 L101.926969,37.8403747 C102.123914,37.8030412 102.224798,37.7443143 102.259195,37.5840738 C102.271989,37.5582759 102.271989,37.5331073 102.271989,37.5058412 L102.271989,37.3737057 C102.271989,37.3384696 102.259195,37.2900199 102.234446,37.2268885 C102.173832,37.114888 102.111539,37.066648 101.987164,37.0431573 L101.818953,37.0431573 L100.542692,37.0431573 C100.274017,37.0431573 100.027783,36.9806551 99.8199322,36.8600552 C99.2177719,36.5269899 98.9723774,36.1492502 98.9723774,35.6341315 L98.9723774,34.3910092 C98.9723774,34.2699899 98.9864299,34.1334499 99.0206173,34.0132695 C99.1942811,33.2932359 99.743797,32.8943126 100.604985,32.8943126 L103.99038,32.8943126 L104.004642,34.5787255 L101.120942,34.5787255 L100.971399,34.5787255 L100.948537,34.5787255 C100.896312,34.5894222 100.862125,34.6034747 100.813675,34.6252875 C100.800461,34.6355647 100.788506,34.6496172 100.776761,34.6630405 C100.665809,34.7591009 100.626168,34.8373335 100.626168,34.8845248 L100.626168,35.0420387 C100.626168,35.0797917 100.653225,35.154249 100.712791,35.2402419 C100.763967,35.3025343 100.837375,35.3400776 101.033901,35.3621002 L101.120942,35.3621002 L102.532066,35.3621002 C102.957416,35.3621002 103.29195,35.5223407 103.585374,35.8648443 C103.85363,36.200007 103.99038,36.5529975 103.99038,36.8336281 L103.967728,38.0507428 C103.967728,38.3286468 103.865585,38.6004684 103.70891,38.8483798 C103.33977,39.3611913 103.019289,39.5214318 102.393638,39.5214318 L98.9354633,39.5214318 Z" id="Fill-39" fill="#252525"></path>
                        <path d="M105.071961,39.5214318 L105.071961,30.4204425 L106.749453,30.4204425 L106.749453,32.8943126 L109.032251,32.8943126 C109.127892,32.8943126 109.217241,32.9085748 109.300717,32.9232565 C110.024525,33.0694445 110.418835,33.4752893 110.552648,34.1477121 C110.562506,34.2322369 110.562506,34.3199077 110.562506,34.4065299 L110.562506,39.5214318 L108.900325,39.5214318 L108.900325,35.0932149 L108.900325,34.9474464 L108.886273,34.8845248 C108.886273,34.6997448 108.785388,34.6034747 108.555305,34.5787255 L108.465117,34.5787255 L107.226189,34.5787255 C107.021694,34.5787255 106.933394,34.612074 106.847611,34.6997448 C106.787416,34.7591009 106.763505,34.823281 106.749453,34.8845248 L106.749453,35.1034922 L106.749453,39.5214318 L105.071961,39.5214318 Z" id="Fill-41" fill="#252525"></path>
                        <path d="M111.446052,38.501199 C111.436404,38.2197294 111.547146,37.9500052 111.743671,37.7444611 C112.148048,37.3262418 112.834733,37.3151257 113.236173,37.7444611 C113.643276,38.1454819 113.643276,38.8107736 113.228203,39.2143112 C112.834733,39.617639 112.184542,39.617639 111.765064,39.2268955 C111.572105,39.0421156 111.461363,38.7858147 111.446052,38.501199" id="Fill-43" fill="#252525"></path>
                        <g id="Group-47" transform="translate(117.985689, 32.894417)">
                            <mask id="mask-6" fill="white">
                                <use xlink:href="#path-5"></use>
                            </mask>
                            <g id="Clip-46"></g>
                            <path d="M1.69385116,4.5427343 C1.73307232,4.78582165 1.8532527,4.8999196 2.11081204,4.93578495 C2.13577097,4.94606215 2.17310448,4.94606215 2.20917957,4.94606215 L3.41077359,4.94606215 L3.48439193,4.94606215 C3.60771839,4.91963505 3.69329185,4.87244381 3.75243821,4.80134233 C3.81682805,4.69898976 3.85500052,4.61131891 3.85500052,4.55196281 L3.85500052,2.07746356 L3.85500052,2.02670675 C3.81682805,1.83123012 3.73817597,1.74125214 3.53410005,1.69510959 C3.50893138,1.68420317 3.497186,1.68420317 3.47243682,1.68420317 L2.16093963,1.68420317 C1.95141049,1.68420317 1.82955221,1.76851819 1.74397875,1.96735065 C1.69385116,2.06445975 1.6816863,2.12528402 1.6816863,2.18464012 L1.6816863,4.44394729 C1.6816863,4.47918342 1.6816863,4.50351313 1.69385116,4.5427343 M0,9.10560352 L0,1.76851819 C0,1.64561121 0.013423288,1.5354983 0.0247491873,1.42559513 C0.137588702,0.553500891 0.479882546,0.175131961 1.27500262,0.0289439648 C1.34820149,0.0140525046 1.43524312,-2.98056868e-15 1.50865173,-2.98056868e-15 L3.91372741,-2.98056868e-15 C4.03537596,-2.98056868e-15 4.14632782,0.0140525046 4.25706995,0.0390114308 C5.10462474,0.186667599 5.53563813,0.726535463 5.53563813,1.69510959 L5.53563813,5.12916419 C5.53563813,5.39888838 5.4324466,5.69273255 5.22480512,5.96476387 C5.16398084,6.04089908 5.10462474,6.10969343 5.04065439,6.17051771 C4.72206103,6.46687874 4.35522774,6.62711924 3.96259657,6.62711924 L1.6816863,6.62711924 L1.6816863,9.10560352 C1.66826301,9.05631489 0,9.10560352 0,9.10560352" id="Fill-45" fill="#252525" mask="url(#mask-6)"></path>
                        </g>
                        <path d="M126.438711,37.7294229 C126.489468,37.8013633 126.572734,37.8521201 126.698368,37.8781277 C126.735701,37.8890342 126.756885,37.8890342 126.780585,37.8890342 L128.095858,37.8890342 C128.25484,37.8890342 128.35132,37.8521201 128.425987,37.768644 C128.489747,37.6958646 128.527081,37.6084035 128.527081,37.5073094 L128.527081,37.0431573 C128.527081,36.8342573 128.512609,36.8099276 128.315245,36.7117698 C128.267005,36.6765337 128.20639,36.6629007 128.082854,36.6629007 L126.685783,36.6629007 L126.610906,36.6765337 C126.449617,36.7004439 126.377257,36.7746915 126.352089,36.9947076 L126.352089,37.0930751 L126.352089,37.5073094 C126.352089,37.5582759 126.377257,37.6591603 126.438711,37.7294229 M124.670402,38.0251547 L124.670402,36.6765337 C124.670402,35.6802741 125.284937,35.1034922 126.292733,35.1034922 L128.536309,35.1034922 L128.527081,34.7484042 C128.527081,34.5894222 128.410466,34.5285979 128.167169,34.4918936 L128.082854,34.4918936 L124.69599,34.4918936 L124.69599,32.8951515 L128.512609,32.8951515 C128.610347,32.8951515 128.711232,32.9085748 128.805824,32.9224176 C129.65191,33.0220436 130.043493,33.3752438 130.181921,34.1617646 C130.200587,34.2595029 130.200587,34.3580802 130.200587,34.4526724 L130.200587,37.9616038 C130.200587,38.0587129 130.200587,38.1728109 130.181921,38.2680323 C130.034894,39.0312721 129.440284,39.5231097 128.681239,39.5231097 L126.377257,39.5231097 C125.39526,39.5231097 124.843227,39.0908379 124.69599,38.3175307 C124.708994,38.2197924 124.670402,38.0251547 124.670402,38.0251547" id="Fill-48" fill="#252525"></path>
                        <path d="M131.356102,42 L131.356102,40.3189429 L134.719684,40.3189429 C134.75492,40.3189429 134.791624,40.3189429 134.817842,40.3082462 C135.050232,40.2581186 135.157619,40.1205299 135.19642,39.9156151 L135.19642,39.7639739 L135.19642,39.5215157 L133.02772,39.5215157 C132.350893,39.5215157 131.993708,39.3495298 131.587653,38.7748453 C131.427832,38.5401475 131.356102,38.2821687 131.356102,37.8404586 L131.356102,32.8952354 L133.038627,32.8952354 L133.038627,37.3150627 C133.038627,37.6701507 133.19677,37.8404586 133.491873,37.8404586 L134.681302,37.8404586 C134.705002,37.8404586 134.741916,37.8404586 134.77946,37.8301814 C135.012689,37.7928479 135.157619,37.6435138 135.19642,37.4237075 L135.19642,37.2525606 L135.19642,32.8952354 L136.865522,32.8952354 L136.865522,40.1947775 C136.865522,40.3082462 136.865522,40.4177299 136.840773,40.5263747 C136.730241,41.3372252 136.313699,41.802426 135.624078,41.9639249 C135.513126,41.9865767 135.393785,42 135.283462,42 L131.356102,42 Z" id="Fill-50" fill="#252525"></path>
                        <path d="M139.593051,39.5214318 L139.593051,37.8403747 L142.514503,37.8403747 L142.584556,37.8403747 C142.78213,37.8030412 142.880078,37.7443143 142.918251,37.5840738 C142.928738,37.5582759 142.928738,37.5331073 142.928738,37.5058412 L142.928738,37.3737057 C142.928738,37.3384696 142.918251,37.2900199 142.893921,37.2268885 C142.831419,37.114888 142.772063,37.066648 142.648527,37.0431573 L142.47738,37.0431573 L141.200489,37.0431573 C140.930765,37.0431573 140.683064,36.9806551 140.476681,36.8600552 C139.877037,36.5269899 139.631013,36.1492502 139.631013,35.6341315 L139.631013,34.3910092 C139.631013,34.2699899 139.644227,34.1334499 139.679463,34.0132695 C139.849561,33.2932359 140.403482,32.8943126 141.261943,32.8943126 L144.644402,32.8943126 L144.657196,34.5787255 L141.77832,34.5787255 L141.628776,34.5787255 L141.605285,34.5787255 C141.555368,34.5894222 141.519712,34.6034747 141.472311,34.6252875 C141.45721,34.6355647 141.446094,34.6496172 141.435397,34.6630405 C141.322557,34.7591009 141.287112,34.8373335 141.287112,34.8845248 L141.287112,35.0420387 C141.287112,35.0797917 141.310393,35.154249 141.371427,35.2402419 C141.421135,35.3025343 141.494543,35.3400776 141.6896,35.3621002 L141.77832,35.3621002 L143.186507,35.3621002 C143.615842,35.3621002 143.946391,35.5223407 144.24422,35.8648443 C144.512476,36.200007 144.644402,36.5529975 144.644402,36.8336281 L144.619443,38.0507428 C144.619443,38.3286468 144.52527,38.6004684 144.365868,38.8483798 C143.996099,39.3611913 143.679183,39.5214318 143.050806,39.5214318 L139.593051,39.5214318 Z" id="Fill-52" fill="#252525"></path>
                        <path d="M147.493914,37.7294229 C147.541315,37.8013633 147.628566,37.8521201 147.751683,37.8781277 C147.788807,37.8890342 147.813556,37.8890342 147.837257,37.8890342 L149.150012,37.8890342 C149.306687,37.8890342 149.406313,37.8521201 149.482029,37.768644 C149.544321,37.6958646 149.57767,37.6084035 149.57767,37.5073094 L149.57767,37.0431573 C149.57767,36.8342573 149.568022,36.8099276 149.36877,36.7117698 C149.32011,36.6765337 149.260545,36.6629007 149.137008,36.6629007 L147.737421,36.6629007 L147.66569,36.6765337 C147.507547,36.7004439 147.430783,36.7746915 147.408131,36.9947076 L147.408131,37.0930751 L147.408131,37.5073094 C147.408131,37.5582759 147.430783,37.6591603 147.493914,37.7294229 M145.726025,38.0251547 L145.726025,36.6765337 C145.726025,35.6802741 146.338882,35.1034922 147.34458,35.1034922 L149.590254,35.1034922 L149.57767,34.7484042 C149.57767,34.5894222 149.468186,34.5285979 149.223421,34.4918936 L149.137008,34.4918936 L145.750984,34.4918936 L145.750984,32.8951515 L149.568022,32.8951515 C149.663872,32.8951515 149.764757,32.9085748 149.860188,32.9224176 C150.706275,33.0220436 151.101842,33.3752438 151.235865,34.1617646 C151.258517,34.2595029 151.258517,34.3580802 151.258517,34.4526724 L151.258517,37.9616038 C151.258517,38.0587129 151.258517,38.1728109 151.235865,38.2680323 C151.088629,39.0312721 150.496116,39.5231097 149.736442,39.5231097 L147.430783,39.5231097 C146.450463,39.5231097 145.897801,39.0908379 145.750984,38.3175307 C145.763149,38.2197924 145.726025,38.0251547 145.726025,38.0251547" id="Fill-54" fill="#252525"></path>
                        <path d="M152.414577,39.5214318 L152.414577,31.9406299 C152.414577,31.1085958 153.120977,30.4315587 154.202181,30.4315587 L155.270801,30.4315587 L155.270801,32.0389974 L154.632985,32.0389974 C154.609284,32.0389974 154.570273,32.0538889 154.546782,32.0538889 C154.239305,32.0983535 154.091859,32.2720173 154.091859,32.5434194 L154.091859,32.8943126 L155.270801,32.8943126 L155.270801,34.5787255 L154.091859,34.5787255 L154.091859,39.5214318 L152.414577,39.5214318 Z" id="Fill-56" fill="#252525"></path>
                        <path d="M159.524809,34.9952459 L159.524809,34.9587514 L159.524809,34.9319048 C159.502157,34.8224211 159.40295,34.71084 159.206635,34.6716188 C159.175593,34.6630195 159.148537,34.6630195 159.123368,34.6630195 L157.946314,34.6630195 C157.910448,34.6630195 157.848995,34.6716188 157.761114,34.6997238 C157.58787,34.7483833 157.503345,34.8117244 157.44336,34.9209984 C157.420289,34.9719649 157.407285,35.0327892 157.407285,35.092355 L157.407285,35.766246 L159.524809,34.9952459 Z M155.722662,34.4434229 C155.722662,34.3331003 155.736715,34.2221484 155.762932,34.1095186 C155.948132,33.3026532 156.451085,32.8951306 157.368903,32.8951306 L159.650862,32.8951306 C159.751746,32.8951306 159.847387,32.9085539 159.946384,32.9232356 C160.719062,33.0450939 161.123858,33.4628937 161.224742,34.2221484 C161.23439,34.3073024 161.23439,34.4056699 161.23439,34.5025693 L161.23439,35.828119 L157.431195,37.2621037 L157.431195,37.3736848 C157.431195,37.6450869 157.553053,37.8388856 157.761114,37.8388856 L161.224742,37.8388856 L161.224742,39.5214108 L157.529772,39.5214108 C156.988227,39.5214108 156.766952,39.470654 156.534352,39.3393575 C155.948132,39.0186668 155.722662,38.5786346 155.722662,37.8030202 L155.722662,34.4434229 Z" id="Fill-58" fill="#252525"></path>
                        <g id="Group-62" transform="translate(162.028429, 37.426614)">
                            <mask id="mask-8" fill="white">
                                <use xlink:href="#path-7"></use>
                            </mask>
                            <g id="Clip-61"></g>
                            <path d="M0.0011652908,1.07458458 C-0.0128872138,0.793115006 0.101000995,0.523390813 0.297106844,0.317846715 C0.702951567,-0.100372602 1.38649056,-0.111488762 1.79485215,0.317846715 C2.19818001,0.718867444 2.19818001,1.38415916 1.78226782,1.78769675 C1.38649056,2.19102461 0.73965587,2.19102461 0.321646292,1.80028108 C0.125540444,1.61550114 0.0133301456,1.35920023 0.0011652908,1.07458458" id="Fill-60" fill="#252525" mask="url(#mask-8)"></path>
                        </g>
                    </g>
                    <rect id="Rectangle-Copy-31" x="0" y="0" width="192" height="105"></rect>
                </g>
            </g>
        </g>
    </g>
</svg>