<?xml version="1.0" encoding="UTF-8"?>
<svg width="192px" height="105px" viewBox="0 0 192 105" version="1.1" xmlns="http://www.w3.org/2000/svg" xmlns:xlink="http://www.w3.org/1999/xlink">
    <title>9FE45E93-D2C3-4EF7-8516-3429623B37C5@3x</title>
    <defs>
        <polygon id="path-1" points="0 5.21315741e-15 35.4542349 5.21315741e-15 35.4542349 33.0931269 0 33.0931269"></polygon>
        <polygon id="path-3" points="2.08526296e-14 -5.21315741e-15 24.2764083 -5.21315741e-15 24.2764083 37.6153274 2.08526296e-14 37.6153274"></polygon>
    </defs>
    <g id="Page-1" stroke="none" stroke-width="1" fill="none" fill-rule="evenodd">
        <g id="Cenefas" transform="translate(-1097.000000, -2262.000000)">
            <g id="Group-2" transform="translate(400.000000, 2056.000000)">
                <g id="logo_4" transform="translate(697.000000, 206.000000)">
                    <g id="Group-13" transform="translate(39.000000, 26.000000)">
                        <g id="Group-3" transform="translate(0.000000, 9.656604)">
                            <mask id="mask-2" fill="white">
                                <use xlink:href="#path-1"></use>
                            </mask>
                            <g id="Clip-2"></g>
                            <path d="M34.1937612,4.26372539 C33.7583182,4.66376805 33.3171891,5.0594086 32.8868818,5.46623786 C31.3626477,6.90738192 30.2171794,8.5856902 29.8140186,10.676147 C29.2553162,13.5718249 29.8501526,16.2274038 31.6058649,18.6091342 C32.483721,19.7999077 33.5317924,20.7885505 34.9257971,21.3567908 C35.0883087,21.4230061 35.253755,21.4818844 35.4542349,21.5581878 C35.2726475,22.051959 35.1121535,22.5380264 34.9173597,23.0099703 C33.7812459,25.7620291 32.3043346,28.3071882 30.2898144,30.5161353 C29.9149005,30.9271833 29.4913799,31.3000796 29.0581379,31.6507818 C27.5858121,32.8421055 25.9364845,33.3006597 24.0780561,32.759199 C23.1504927,32.4888354 22.2326507,32.1847223 21.3094894,31.8991347 C20.3578978,31.6049264 19.3953009,31.3688627 18.3916175,31.3450179 C17.1494859,31.3153036 15.9990652,31.6876496 14.8526798,32.1102531 C13.9808766,32.4316078 13.1048547,32.7643348 12.2038875,32.9783878 C10.7862214,33.3153335 9.50428731,32.878423 8.32745388,32.0825564 C7.14071567,31.2797198 6.20269725,30.2259623 5.38995583,29.0656368 C3.35305818,26.1571194 1.80131085,23.0108874 0.849902651,19.580352 C0.00359506473,16.5291325 -0.233752576,13.4338918 0.242043236,10.2997657 C0.661712017,7.5352343 1.69217496,5.04088301 3.63827888,2.97959028 C5.65444988,0.844195194 8.13486112,-0.0334774973 11.0448459,0.25504479 C12.4935103,0.398480536 13.8770599,0.81851616 15.2661122,1.22241068 C15.8448076,1.39079177 16.4357922,1.51735272 17.0203571,1.66555743 C17.8565765,1.87759288 18.6823408,1.78129651 19.4908636,1.54413229 C20.6308292,1.20957116 21.7575886,0.830438569 22.8964537,0.492209009 C24.5896191,-0.0107332102 26.3073631,-0.1545358 28.0542711,0.18369376 C30.3147597,0.621154443 32.1005531,1.83852407 33.5961734,3.53700873 C33.7838138,3.74996129 33.9674189,3.96658228 34.1515742,4.18246959 C34.1682656,4.20209571 34.1761527,4.22905869 34.1937612,4.26372539" id="Fill-1" fill="#252525" mask="url(#mask-2)"></path>
                        </g>
                        <path d="M25.6970825,0 C25.7211107,0.496522461 25.7906276,0.964614563 25.7585288,1.4253698 C25.5831777,3.9400809 24.5950851,6.10207212 22.8591824,7.92308246 C22.0754216,8.74536181 21.2111387,9.4673095 20.1412401,9.88991303 C19.2309184,10.2492361 18.2633691,10.3271903 17.2978374,10.3976613 C17.2829802,10.3985413 17.2670225,10.3822168 17.2516151,10.3737794 C17.3858798,4.76015918 20.219928,1.12877696 25.6970825,0" id="Fill-4" fill="#252525"></path>
                        <path d="M50.9034754,24.0144271 C51.9172469,24.2813057 53.197897,24.3878737 54.7450588,24.3878737 C60.3473069,24.3878737 63.7620681,21.6669966 63.7620681,16.7048902 C63.7620681,11.9562865 60.4006826,9.66204829 55.2786325,9.66204829 C53.2510893,9.66204829 51.7037441,9.82199199 50.9034754,10.0353114 L50.9034754,24.0144271 Z M46.2618066,6.67410928 C48.5024857,6.30066276 51.437049,5.98059195 55.1718811,5.98059195 C59.7603575,5.98059195 63.1219265,7.0475558 65.2558542,8.96834753 C67.2302051,10.6758199 68.4039203,13.2901289 68.4039203,16.4913873 C68.4039203,19.7462049 67.4437079,22.3071382 65.6294842,24.1745543 C63.1751188,26.7890467 59.1735916,28.1227057 54.6383074,28.1227057 C53.2510893,28.1227057 51.9706226,28.0695134 50.9034754,27.8026349 L50.9034754,42.2085729 L46.2618066,42.2085729 L46.2618066,6.67410928 Z" id="Fill-6" fill="#252525"></path>
                        <path d="M84.4595711,29.0297625 C79.337521,28.9230111 73.5217701,29.8300313 73.5217701,34.8455134 C73.5217701,37.8866447 75.5491298,39.3274219 77.9503029,39.3274219 C81.311505,39.3274219 83.4457996,37.1931274 84.1926926,35.0056406 C84.3528197,34.5254426 84.4595711,33.991869 84.4595711,33.5116711 L84.4595711,29.0297625 Z M85.1530885,42.2084261 L84.7798254,38.953792 L84.6195148,38.953792 C83.1791045,40.9813351 80.4044849,42.7953755 76.7230285,42.7953755 C71.494227,42.7953755 68.8265422,39.1139191 68.8265422,35.3790871 C68.8265422,29.136514 74.3754146,25.7217527 84.3528197,25.7753119 L84.3528197,25.2415548 C84.3528197,23.1074437 83.7660538,19.2658602 78.4836931,19.2658602 C76.0827035,19.2658602 73.5751458,20.0127532 71.7609221,21.1866519 L70.6939582,18.0919615 C72.8282528,16.7047434 75.9227598,15.7977233 79.1773939,15.7977233 C87.0738802,15.7977233 88.9948554,21.1866519 88.9948554,26.3620778 L88.9948554,36.0194121 C88.9948554,38.2600912 89.1014234,40.4477615 89.4214942,42.2084261 L85.1530885,42.2084261 Z" id="Fill-8" fill="#252525"></path>
                        <g id="Group-12" transform="translate(90.109380, 16.384673)">
                            <mask id="mask-4" fill="white">
                                <use xlink:href="#path-3"></use>
                            </mask>
                            <g id="Clip-11"></g>
                            <path d="M5.12205014,-5.21315741e-15 L10.7773071,15.2595824 C11.3644398,16.9668713 12.0047649,18.9944145 12.4315871,20.5417597 L12.5381551,20.5417597 C13.018353,18.9944145 13.5521101,17.020247 14.1920683,15.152831 L19.3143019,-5.21315741e-15 L24.2764083,-5.21315741e-15 L17.2335664,18.4074651 C13.8719975,27.2645307 11.5779427,31.7996315 8.37650083,34.5740677 C6.08226258,36.6016108 3.78839117,37.4018796 2.61449249,37.6153824 L1.44041038,33.6670475 C2.61449249,33.293601 4.16147085,32.5465246 5.54850552,31.3728093 C6.82915562,30.3590377 8.42987654,28.5449974 9.49702381,26.1440077 C9.71052664,25.6638098 9.87028691,25.2901799 9.87028691,25.0234848 C9.87028691,24.7567897 9.76371892,24.3831597 9.55039952,23.7962104 L2.08526296e-14,-5.21315741e-15 L5.12205014,-5.21315741e-15 Z" id="Fill-10" fill="#252525" mask="url(#mask-4)"></path>
                        </g>
                    </g>
                    <rect id="Rectangle-Copy-30" x="0" y="0" width="192" height="105"></rect>
                </g>
            </g>
        </g>
    </g>
</svg>