<?xml version="1.0" encoding="UTF-8"?>
<svg width="192px" height="105px" viewBox="0 0 192 105" version="1.1" xmlns="http://www.w3.org/2000/svg" xmlns:xlink="http://www.w3.org/1999/xlink">
    <title>BE558569-5247-4B3F-B9E8-ED215D01CAC3@3x</title>
    <defs>
        <polygon id="path-1" points="0 0 22.3525363 0 22.3525363 32.5794113 0 32.5794113"></polygon>
        <polygon id="path-3" points="0 0 17.3627675 0 17.3627675 32.1735745 0 32.1735745"></polygon>
        <polygon id="path-5" points="-9.30024324e-15 0 17.5179088 0 17.5179088 32.9836991 -9.30024324e-15 32.9836991"></polygon>
    </defs>
    <g id="Page-1" stroke="none" stroke-width="1" fill="none" fill-rule="evenodd">
        <g id="Cenefas" transform="translate(-1329.000000, -2429.000000)">
            <g id="Group-2" transform="translate(400.000000, 2056.000000)">
                <g id="logo_10" transform="translate(929.000000, 373.000000)">
                    <g id="Group-18" transform="translate(23.000000, 32.000000)">
                        <path d="M86.7142021,21.6417993 L86.7213192,21.6417993 C86.7213192,23.1931645 86.7213192,24.7445298 86.7213192,26.2958133 C86.7213192,27.5558681 86.7511783,27.5792646 88.0317664,27.6645062 C88.8909727,27.7217703 89.5295488,27.3841577 89.8767327,26.6033213 C90.107016,26.0854088 90.3245377,25.5411547 90.4178781,24.9867568 C90.786086,22.8013965 90.738475,20.5943577 90.6160935,18.3929635 C90.5725729,17.6108182 90.4193506,16.8283457 90.2455132,16.0619889 C90.0944997,15.3966623 89.7125484,15.1657245 89.0315969,15.1351292 C88.3797683,15.1058427 87.8117087,15.3569047 87.2320328,15.5984772 C86.8706966,15.7490817 86.7072486,15.9788742 86.7095955,16.375387 C86.7201739,18.1307759 86.7142021,19.8863285 86.7142021,21.6417993 M86.3966319,10.8820454 C86.5703057,10.7574551 86.7032401,10.6655872 86.8324933,10.5688928 C89.1859645,8.80753198 91.7755272,8.57790308 94.5107861,9.4236933 C95.5910317,9.7577882 96.4002548,10.4820968 97.0344952,11.4063388 C97.9982494,12.8106172 98.4503082,14.4048487 98.6931079,16.0588803 C99.2148653,19.6135879 99.2655849,23.1665777 98.4939107,26.6986251 C98.2337683,27.8890631 97.80756,29.0188013 97.1692293,30.0646067 C95.9798547,32.0133846 94.2285561,33.0790688 91.9840502,33.3572904 C90.3622501,33.558369 88.7490397,33.5249105 87.1592256,33.0950209 C87.0808557,33.0738332 86.9995407,33.0616442 86.9187984,33.0522365 C86.8795316,33.0476554 86.8384651,33.0592718 86.7450429,33.0690885 L86.7450429,41.4935321 C86.4808919,41.5103841 86.2670515,41.5357439 86.0531294,41.5359893 C83.7097203,41.5388525 81.3662294,41.5380013 79.0227385,41.5380013 C78.3251804,41.5376254 78.3241578,41.5372982 78.3241578,40.8486569 C78.3241578,33.8617868 78.3241578,26.8749166 78.3241578,19.8880464 C78.3241578,16.6056703 78.3237897,13.3232942 78.3247714,10.0409999 C78.324935,9.42295705 78.3277164,9.42295705 78.9268621,9.42197538 C80.7661838,9.41911217 82.6055873,9.42622928 84.4447454,9.40700491 C84.9504689,9.40176934 85.3370013,9.54239352 85.6328111,9.96991066 C85.8480422,10.2808545 86.1183286,10.5537587 86.3966319,10.8820454" id="Fill-1" fill="#252525"></path>
                        <g id="Group-5" transform="translate(120.811933, 9.420589)">
                            <mask id="mask-2" fill="white">
                                <use xlink:href="#path-1"></use>
                            </mask>
                            <g id="Clip-4"></g>
                            <path d="M0,0.0329719441 L9.08887032,0.0329719441 C9.95511199,5.3101826 10.8209446,10.5846937 11.6867773,15.8592047 C11.7372514,15.8601046 11.7876438,15.8609227 11.8380362,15.8618225 C11.8790209,15.6729329 11.937103,15.4860066 11.9584543,15.2949901 C12.5114616,10.3291323 13.0616874,5.36294734 13.6073321,0.396189717 C13.6352279,0.142673528 13.7092622,-0.000895659028 14.0000818,0 C16.7389401,0.00802117369 19.4778803,0.00712130983 22.2167386,0.00990270719 C22.242262,0.009984513 22.2677037,0.0249549753 22.3525363,0.0517054734 C22.3077885,0.301867624 22.2794837,0.566263985 22.2121575,0.820271009 C20.0181258,9.09443732 17.824585,17.3687672 15.6194277,25.6399885 C15.2139163,27.1609221 14.6325225,28.6110936 13.6846386,29.8897183 C12.4694952,31.5286158 10.8002478,32.338166 8.80516779,32.5162573 C6.30722754,32.7392599 3.86049773,32.3379206 1.42628421,31.8429137 C1.31249233,31.8197626 1.14495404,31.647316 1.14421779,31.5433408 C1.13006539,29.6229496 1.13750971,27.7023947 1.14184542,25.7819216 C1.14184542,25.7576253 1.1612334,25.733329 1.18896557,25.6682934 C1.96693877,25.7930472 2.75407422,25.925409 3.54317301,26.0444364 C4.60517597,26.2046122 5.66513378,26.4536291 6.74660652,26.2480511 C7.01574762,26.1969225 7.31221185,26.1004734 7.51607192,25.9294993 C8.18581604,25.3675752 8.50338618,24.0561464 8.21117584,23.23318 C5.55183274,15.7432859 2.89109894,8.25396448 0.232164874,0.763988615 C0.151667962,0.537386536 0.0861415124,0.305548885 0,0.0329719441" id="Fill-3" fill="#252525" mask="url(#mask-2)"></path>
                        </g>
                        <g id="Group-8" transform="translate(0.000000, 1.331808)">
                            <mask id="mask-4" fill="white">
                                <use xlink:href="#path-3"></use>
                            </mask>
                            <g id="Clip-7"></g>
                            <path d="M16.544365,7.19748621 C15.7219713,7.0155501 14.9218287,6.78207633 14.1050796,6.6717203 C12.989003,6.5208704 11.858774,6.36985688 10.73738,6.38809957 C8.94951413,6.41722244 7.99091371,7.73331423 8.34316951,9.49819266 C8.47962159,10.1818438 8.82263333,10.7355055 9.36999597,11.1641679 C10.6136896,12.1383114 11.8263789,13.1556484 13.1084394,14.0765363 C16.0361056,16.1792727 17.3350999,19.0671812 17.3621777,22.6006194 C17.374694,24.2334632 17.1906309,25.8380023 16.5602354,27.3605719 C15.5657222,29.7623903 13.6808347,31.1150493 11.221834,31.6761553 C7.76897456,32.4641089 4.32429574,32.2845451 0.915693275,31.3592397 C0.23564162,31.174604 0.228033681,31.1482625 0.224107002,30.4509498 C0.213881276,28.6396875 0.217726149,26.8283434 0.217235314,25.017081 C0.217235314,24.9508183 0.230733272,24.8845556 0.242758725,24.7741996 C1.22025629,24.9516364 2.17902032,25.1251465 3.13753893,25.2998837 C3.7937851,25.4194838 4.44929501,25.5430106 5.1058684,25.6606473 C5.84473843,25.7930091 6.57428259,25.7312457 7.28640212,25.5105336 C8.68773556,25.0761448 9.36516943,23.6414346 8.82312416,22.2763412 C8.5390126,21.5609494 8.05005931,20.9994344 7.46907448,20.5123626 C6.1643537,19.418619 4.85186137,18.3341194 3.5500856,17.2368582 C1.62887628,15.6174305 0.420440933,13.58971 0.116859592,11.075245 C-0.129539492,9.03410833 -0.0249916733,7.02111289 0.805909885,5.10170329 C1.87740232,2.62675048 3.85391236,1.23155248 6.37083156,0.507571109 C8.6009396,-0.133868206 10.8716233,-0.0951740606 13.1382168,0.226240946 C14.1716695,0.372755142 15.1840163,0.667256039 16.2063435,0.892712837 C16.4429258,0.94490494 16.5922214,1.04568969 16.5909125,1.32759249 C16.5824047,3.19333748 16.5855134,5.05916428 16.5825684,6.92490926 C16.5824865,7.00458812 16.5608898,7.08418517 16.544365,7.19748621" id="Fill-6" fill="#252525" mask="url(#mask-4)"></path>
                        </g>
                        <path d="M111.773332,21.7167007 C110.4853,21.397249 109.373559,21.9214606 109.089039,22.9887809 C108.740464,24.2966103 108.723612,25.6296359 108.997907,26.9489999 C109.249623,28.1600531 110.003546,28.5847888 111.19562,28.2986321 C111.602277,28.200956 111.785522,28.0025769 111.78045,27.5643432 C111.762125,25.9876999 111.773332,24.4106476 111.773332,22.8338407 C111.773332,22.468496 111.773332,22.1031513 111.773332,21.7167007 M103.319602,16.2262223 L103.319602,10.278613 C104.276321,10.0489841 105.272634,9.77722526 106.28269,9.57385603 C108.654077,9.09643736 111.050742,8.80095479 113.468103,9.04620859 C114.514727,9.15239253 115.569613,9.38341212 116.567725,9.71627994 C118.492043,10.3581283 119.510935,11.8376681 119.906956,13.7647674 C120.051344,14.4674793 120.146157,15.1939966 120.148611,15.9100428 C120.168244,21.4801183 120.159736,27.0502755 120.1599,32.6204328 C120.1599,32.7145094 120.1599,32.8086679 120.1599,32.9332581 C120.0394,32.9501101 119.93747,32.9757972 119.835295,32.9768606 C117.819436,32.9972303 115.803414,33.0089285 113.787555,33.0375606 C113.367319,33.0435324 113.060138,32.8983271 112.809239,32.5637413 C112.502468,32.1547123 112.167309,31.766871 111.823807,31.3445894 C111.00943,32.4000479 110.016389,33.0665198 108.783003,33.3116918 C107.38576,33.5894225 105.987126,33.5492559 104.627432,33.0918796 C102.825005,32.4854532 101.74754,31.1718156 101.23789,29.3945026 C100.617311,27.2305755 100.574363,25.0358076 101.185943,22.8624728 C101.927186,20.2284895 103.791622,18.7753729 106.362206,18.1109462 C107.841664,17.7285041 109.352208,17.7172967 110.86627,17.7114067 C111.931463,17.7073164 111.755335,17.8513764 111.76867,16.7973086 C111.782658,15.7009472 111.435311,15.328649 110.35392,15.2087217 C108.811062,15.0375839 107.317207,15.3639073 105.823269,15.6687157 C105.156797,15.804677 104.49826,15.9796596 103.835388,16.1336999 C103.691655,16.1670767 103.544568,16.1863828 103.319602,16.2262223" id="Fill-9" fill="#252525"></path>
                        <path d="M30.096012,24.8595733 L30.0979753,24.8595733 C30.0979753,24.1391096 30.0979753,23.4187277 30.0979753,22.698264 C30.0979753,21.5216511 30.0529003,21.4904013 28.8622986,21.7043234 C28.1240012,21.8369306 27.6122241,22.221827 27.4199805,22.9626603 C27.0763143,24.2869327 27.0424467,25.6296114 27.329176,26.9611644 C27.596681,28.2033038 28.3864343,28.6179774 29.6116398,28.2707936 C29.9577602,28.1727084 30.1034563,27.9873365 30.0994478,27.6325447 C30.0891403,26.7083027 30.096012,25.7838971 30.096012,24.8595733 M21.6285385,16.2221074 C21.6285385,15.2388017 21.6327924,14.3021252 21.6273115,13.3655305 C21.6223213,12.5078785 21.6305837,11.6489993 21.5850997,10.793147 C21.5648936,10.4134863 21.7091991,10.2784249 22.0449301,10.1841028 C23.9109205,9.65980939 25.8039886,9.28669312 27.7343602,9.10418437 C29.5023472,8.93705511 31.26878,8.86629309 33.0276866,9.19114394 C33.388532,9.25781567 33.7450417,9.35001081 34.1012242,9.43942455 C36.5646424,10.0581219 37.9123112,11.6867118 38.3089057,14.1430129 C38.4169712,14.8120208 38.4752169,15.4964899 38.476853,16.1741692 C38.4901056,21.6351157 38.4842974,27.0960622 38.4843792,32.5570905 L38.4843792,32.9900886 C38.0618522,32.9900886 37.6724566,32.9874709 37.2830609,32.9904977 C35.5531954,33.0037502 33.823248,33.0127489 32.0935461,33.037127 C31.689589,33.0427716 31.3907524,32.9032927 31.1476256,32.5822867 C30.8379088,32.1733395 30.5036503,31.7828804 30.1534396,31.3519274 C29.9821383,31.5500611 29.859675,31.7069646 29.7217504,31.8488977 C28.7466252,32.8532275 27.5521787,33.4105705 26.1586986,33.4339669 C25.279777,33.4487738 24.3765591,33.4270134 23.5225065,33.2436048 C21.4197701,32.7920368 20.13501,31.3997838 19.5563157,29.375581 C18.9416269,27.2256426 18.9010512,25.0420821 19.5041236,22.8822452 C20.2443025,20.2312463 22.1169192,18.7694584 24.7058275,18.1064223 C26.1727692,17.7307701 27.669161,17.7178448 29.1694794,17.7116275 C30.254797,17.70721 30.0777693,17.8564238 30.091349,16.7724151 C30.1049288,15.6962597 29.7531638,15.3297697 28.6941877,15.2097606 C27.1511666,15.0349416 25.6573926,15.3617558 24.1632096,15.6642737 C23.4831579,15.8020346 22.8117777,15.9820074 22.1355709,16.1387473 C21.9937197,16.1716333 21.8477781,16.1866855 21.6285385,16.2221074" id="Fill-11" fill="#252525"></path>
                        <path d="M67.9245786,17.5882071 C67.9524743,17.581499 67.9802883,17.574791 68.0081841,17.5680011 C67.8494808,16.650958 67.7296353,15.7248345 67.5176765,14.8203077 C67.387278,14.2636192 66.9764493,13.9269883 66.3609424,13.8979473 C65.6923436,13.8663702 65.146617,14.0783291 64.8200483,14.683283 C64.666826,14.9671491 64.5086136,15.2811198 64.4792453,15.5933726 C64.3671713,16.7816019 64.30369,17.9744941 64.2291649,19.1660775 C64.211004,19.4557518 64.4214086,19.4859382 64.641957,19.4859382 C65.5950765,19.48602 66.5483595,19.4793119 67.5013153,19.489783 C67.8152042,19.4932189 67.9422486,19.379018 67.9296505,19.0572757 C67.9104261,18.5682406 67.9245786,18.0779785 67.9245786,17.5882071 M75.6681524,23.9639879 L75.163656,23.9639879 C71.7023706,23.9639879 68.241167,23.9728229 64.7800452,23.9530259 C64.3409935,23.95049 64.24389,24.1403612 64.2271198,24.5003068 C64.1678924,25.7785225 64.9466837,26.763628 66.1992941,27.0230342 C67.6734347,27.3281698 69.1282692,27.1284001 70.5842489,26.8953353 C71.8460216,26.6934386 73.1077125,26.4912964 74.3926363,26.285473 C74.4180779,26.3873213 74.4519455,26.4610283 74.4526818,26.5349807 C74.47027,28.291515 74.4740331,30.0482128 74.5067554,31.8044199 C74.5143633,32.21214 74.3383173,32.3617628 73.9762448,32.4732641 C71.5308238,33.2259593 69.030593,33.5851686 66.4781701,33.4477349 C65.2457657,33.3813903 63.9964274,33.2714433 62.7982996,32.993549 C59.4006591,32.2052683 57.3958443,29.9627258 56.4962258,26.657444 C55.8142108,24.1518958 55.7836973,21.5985731 55.9614613,19.0335521 C56.0588102,17.628292 56.3363773,16.2570631 56.8198496,14.9298457 C58.0642795,11.5134717 60.5289248,9.62735703 64.0960669,9.11386199 C65.7429814,8.87678877 67.378443,8.89699481 69.010796,9.24998685 C71.6888727,9.82900834 73.4893366,11.4329748 74.5400504,13.9265793 C75.2524971,15.6172599 75.5732577,17.4002992 75.6537546,19.2157336 C75.7229623,20.7765883 75.6681524,22.3429241 75.6681524,23.9639879" id="Fill-13" fill="#252525"></path>
                        <g id="Group-17" transform="translate(40.182571, 0.000000)">
                            <mask id="mask-6" fill="white">
                                <use xlink:href="#path-5"></use>
                            </mask>
                            <g id="Clip-16"></g>
                            <path d="M0.0581792634,9.42203264 C0.794431506,9.42203264 1.5271661,9.43193114 2.25949166,9.41957847 C3.22160973,9.40329911 3.07656804,9.46915278 3.12164304,8.58548648 C3.17579848,7.52569228 3.11518038,6.44896428 3.28247325,5.40823083 C3.74843911,2.50927853 5.67660193,0.686972426 8.70300768,0.210453613 C11.5752095,-0.241768875 14.4049541,0.0724472206 17.2003402,0.792829137 C17.3225581,0.824324372 17.5026945,0.980655264 17.503758,1.08045835 C17.5224097,2.80778791 17.5172559,4.5353629 17.5172559,6.29623284 C16.7742138,6.20281061 16.0657755,6.10791588 15.3558647,6.02635549 C14.72007,5.95330291 14.0837027,5.87935046 13.4456174,5.83362102 C12.2377547,5.74715228 11.5954155,6.30465884 11.5252261,7.51857518 C11.4907859,8.1136306 11.5192543,8.71236728 11.5192543,9.38407475 L15.9713716,9.38407475 C15.6700808,10.8480714 15.3883416,12.232062 15.0984219,13.6143347 C15.0237332,13.9703536 15.0308503,14.4556256 14.8044936,14.6364982 C14.5757646,14.8191706 14.1039905,14.7049697 13.738564,14.7077511 C13.0200636,14.7130685 12.3015632,14.7093054 11.4980666,14.7093054 L11.4980666,15.8023128 C11.4980666,21.3038349 11.4981484,26.8054389 11.4980666,32.3069611 C11.4980666,32.9788322 11.4979848,32.9788322 10.8050078,32.978914 C8.46192597,32.978914 6.11876231,32.9828406 3.77559864,32.9764598 C3.09497435,32.9745783 3.12745125,33.1075127 3.12622416,32.3107242 C3.12017053,28.3343076 3.12336096,24.3579729 3.12336096,20.3815563 C3.12336096,18.6520998 3.11378968,16.9225615 3.13121432,15.1932686 C3.13481377,14.8390494 3.03558333,14.7084055 2.6757196,14.7156863 C1.92719648,14.7308203 1.17793712,14.7099599 0.42892317,14.7093054 C0.215082797,14.7091418 0.0526982745,14.6724928 0.0500804888,14.4067875 C0.0347828033,12.8557495 0.0147403811,11.3047114 -9.30024324e-15,9.75367337 C-0.000802721776,9.66188726 0.0312651537,9.56985573 0.0581792634,9.42203264" id="Fill-15" fill="#252525" mask="url(#mask-6)"></path>
                        </g>
                    </g>
                    <rect id="Rectangle-Copy-40" x="0" y="0" width="192" height="105"></rect>
                </g>
            </g>
        </g>
    </g>
</svg>