<?xml version="1.0" encoding="UTF-8"?>
<svg width="192px" height="105px" viewBox="0 0 192 105" version="1.1" xmlns="http://www.w3.org/2000/svg" xmlns:xlink="http://www.w3.org/1999/xlink">
    <title>CC519312-BE1B-47D1-8DFC-E4BC14073D68@3x</title>
    <g id="Page-1" stroke="none" stroke-width="1" fill="none" fill-rule="evenodd">
        <g id="Cenefas" transform="translate(-633.000000, -2262.000000)">
            <g id="Group-2" transform="translate(400.000000, 2056.000000)">
                <g id="logo_2" transform="translate(233.000000, 206.000000)">
                    <g id="Group-9" transform="translate(31.000000, 32.000000)" fill="#252525">
                        <path d="M117.166844,26.8966569 C116.123919,21.8973002 115.095247,16.9647851 114.066574,12.0327615 C114.024307,12.0244063 113.982531,12.0160511 113.940755,12.0081874 C112.147828,16.9524981 110.355392,21.8973002 108.542806,26.8966569 L117.166844,26.8966569 Z M129.972412,41.3246076 L120.188476,41.3246076 C119.830186,39.60442 119.446338,37.9210936 119.143094,36.2240056 C119.017274,35.5192202 118.792175,35.2459561 118.005804,35.2562772 C114.082302,35.3068999 110.158308,35.2946128 106.234314,35.263158 C105.640604,35.2587346 105.404201,35.454836 105.223827,35.9959579 C104.683197,37.6134257 104.091944,39.2141832 103.487421,40.8090428 C103.405343,41.025295 103.133062,41.3226417 102.94679,41.3241161 C99.4100844,41.3550795 95.8733787,41.3467243 92.2344446,41.3467243 C92.8974541,39.7498987 93.5255683,38.225321 94.1630207,36.7041837 C98.7229923,25.8247343 103.28493,14.9452849 107.846376,4.06632692 C108.834255,1.71016137 110.315582,0.723046732 112.862934,0.723046732 C115.702227,0.723046732 118.54152,0.723046732 121.453551,0.723046732 C121.737137,2.04928408 122.023179,3.35662666 122.296443,4.66593517 C124.540551,15.4175992 126.779252,26.1702462 129.028766,36.9209273 C129.316775,38.2980604 129.65688,39.6643808 129.972412,41.0356161 L129.972412,41.3246076 Z" id="Fill-1"></path>
                        <path d="M87.3475882,0 C88.6387119,0.239843301 89.9396652,0.436927653 91.2185018,0.731816958 C92.3852805,1.00114919 93.5274851,1.37615009 94.7674946,1.72903429 C94.1423293,4.65187878 93.5323999,7.50444132 92.9352491,10.2950771 C91.2995964,9.81539051 89.7361916,9.26296455 88.1290449,8.90811442 C85.9301536,8.42302151 83.6781823,8.23822421 81.4787996,8.85110248 C80.5847935,9.10028395 79.6799748,9.5784961 78.9761723,10.1815447 C77.7686006,11.2156232 77.7528732,12.7048142 78.9058904,13.7909898 C79.7011086,14.5395172 80.6432799,15.1543614 81.5849597,15.7205488 C83.7258561,17.0077407 85.9734041,18.127337 88.0538481,19.5025042 C90.5043782,21.1219379 92.2914074,23.3488437 92.6668998,26.359172 C93.3304007,31.6838899 91.3610317,35.8781987 86.8885439,38.8452766 C84.0757914,40.710943 80.8929528,41.5444967 77.5769226,41.8531475 C72.9461775,42.2841774 68.4068482,41.7651722 63.9820342,40.3118594 C63.6856704,40.214546 63.3966789,40.0926584 63.1076874,39.9742112 C63.0211865,39.939316 62.9464812,39.8764062 62.8142725,39.7943287 C63.4389464,36.8670609 64.0650946,33.9358612 64.7084448,30.922584 C65.46287,31.251877 66.1706043,31.5816616 66.894066,31.8731105 C70.3511517,33.265971 73.9207867,33.9034234 77.6206645,33.209942 C78.5834781,33.0295681 79.564968,32.6049275 80.3808284,32.0579078 C82.1516387,30.8709784 82.3212,28.6406322 80.7091385,27.2462973 C79.6495029,26.3301745 78.3760726,25.6534036 77.1685009,24.9181463 C75.2826838,23.7690609 73.2794025,22.7905199 71.4953222,21.5048026 C69.2079641,19.8568628 67.5511777,17.659446 67.2371206,14.7390589 C66.7667722,10.366342 68.3896463,6.8158748 71.7459781,4.05718535 C74.6663652,1.65678641 78.1337719,0.591744538 81.8277519,0.144004277 C82.0327,0.119430168 82.2327332,0.0491482175 82.4347324,0 L87.3475882,0 Z" id="Fill-3"></path>
                        <path d="M49.298611,0.756145326 C48.7486425,2.07872386 48.2286543,3.33986712 47.7008025,4.59806148 C42.6655676,16.6108688 37.6234519,28.6207272 32.6083678,40.6423812 C32.3695075,41.2149579 32.0770756,41.3653515 31.4961437,41.3604367 C28.3182199,41.3343881 25.1393132,41.3235755 21.9613895,41.3680742 C21.2875674,41.3771471 21.0678749,41.1407441 20.913058,40.5362211 C18.2182612,30.0361959 15.4792311,19.5474748 12.8149062,9.0395859 C12.3263729,7.11199281 11.3478319,5.79531206 9.51312897,4.98731537 C6.57160816,3.69225984 3.51852089,2.78203485 0.403998348,2.04284566 C0.266383339,2.00991635 0.129259812,1.97403815 0,1.94160033 C0.0152359474,0.72321602 0.0152359474,0.72321602 1.1746424,0.72321602 C6.73674617,0.72321602 12.2988499,0.721741573 17.8609537,0.723707502 C20.49923,0.724690466 22.4037234,2.25713189 22.9025779,4.86837668 C24.3146061,12.2607601 25.696654,19.6590412 27.0909889,27.0543735 C27.1524242,27.3777688 27.2217232,27.6996896 27.3141219,28.1552936 C27.4581261,27.8839954 27.55888,27.731636 27.6247386,27.565515 C31.0793668,18.8279449 34.534978,10.0903748 37.9724043,1.34543245 C38.159659,0.868203261 38.3911471,0.706014144 38.9067119,0.70987645 C42.1328009,0.735503074 45.3593814,0.722724538 48.5859619,0.724198984 C48.7948418,0.724198984 49.0032302,0.742383825 49.298611,0.756145326" id="Fill-5"></path>
                        <path d="M45.0862647,41.3480513 C47.9919074,27.7683988 50.8773992,14.2836024 53.7697718,0.766368155 L64.3091155,0.766368155 C63.870222,2.82518698 63.441158,4.84468724 63.0096367,6.86369601 C60.6220163,18.0286966 58.2255492,29.1922227 55.8639773,40.3626296 C55.6998223,41.1386799 55.4250838,41.385404 54.619053,41.3696765 C51.7311037,41.314139 48.8411885,41.3480513 45.9517648,41.3480513 L45.0862647,41.3480513 Z" id="Fill-7"></path>
                    </g>
                    <rect id="Rectangle-Copy-28" x="0" y="0" width="192" height="105"></rect>
                </g>
            </g>
        </g>
    </g>
</svg>