<?xml version="1.0" encoding="UTF-8"?>
<svg width="192px" height="105px" viewBox="0 0 192 105" version="1.1" xmlns="http://www.w3.org/2000/svg" xmlns:xlink="http://www.w3.org/1999/xlink">
    <title>C30CDB7A-65FC-4680-88C3-1ABA608F478D@3x</title>
    <defs>
        <polygon id="path-1" points="0 0 35.4952287 0 35.4952287 37 0 37"></polygon>
    </defs>
    <g id="Page-1" stroke="none" stroke-width="1" fill="none" fill-rule="evenodd">
        <g id="Cenefas" transform="translate(-864.000000, -2429.000000)">
            <g id="Group-2" transform="translate(400.000000, 2056.000000)">
                <g id="logo_8" transform="translate(464.000000, 373.000000)">
                    <g id="Group-22" transform="translate(8.000000, 34.000000)">
                        <path d="M16.1995654,18.7153358 L15.1300467,23.1836112 C16.4504687,23.5258572 20.5221551,24.8873255 21.1239761,22.3673084 C21.7529687,19.7391831 17.5194092,19.058738 16.1995654,18.7153358" id="Fill-1" fill="#252525"></path>
                        <path d="M17.6582732,12.617692 L16.688769,16.6703005 C17.7877717,16.9558909 21.1772786,18.1213771 21.7264909,15.8279823 C22.2982498,13.4363073 18.7572759,12.9032824 17.6582732,12.617692" id="Fill-3" fill="#252525"></path>
                        <g id="Group-7">
                            <mask id="mask-2" fill="white">
                                <use xlink:href="#path-1"></use>
                            </mask>
                            <g id="Clip-6"></g>
                            <path d="M25.5731737,15.8645194 C25.3176454,17.6665137 24.3591255,18.5388941 23.0866873,18.8452967 C24.8337605,19.7939887 25.7234844,21.248534 24.8759631,23.7685512 C23.8255224,26.8984831 21.3274737,27.1626831 18.0073409,26.5076752 L17.2008661,29.8734793 L15.253764,29.3676259 L16.0486765,26.046915 C15.5439793,25.9156822 15.0282979,25.7769338 14.4970073,25.6266231 L13.6992042,28.9640994 L11.7538365,28.458246 L12.5603114,25.0855045 C12.1053324,24.9640996 11.6428378,24.8357574 11.1716715,24.7126182 L8.63720135,24.0535635 L9.60439308,21.7289503 C9.60439308,21.7289503 11.0392824,22.1272737 11.0202045,22.0977897 C11.5711512,22.2394286 11.8156951,21.8653861 11.9122409,21.6156391 L13.1858353,16.2940612 C13.2569438,16.3119828 13.326318,16.3304826 13.3916453,16.347248 C13.3141775,16.3154515 13.2436471,16.2940612 13.1887258,16.2796082 L14.0981058,12.4807936 C14.1218086,12.0495174 13.9790134,11.5055082 13.1898821,11.3002763 C13.2211005,11.2788859 11.775805,10.9337493 11.775805,10.9337493 L12.294377,8.76580613 L14.979736,9.46475102 L14.9774235,9.47515715 C15.38095,9.57979654 15.7971951,9.67923287 16.2209557,9.77982543 L17.019337,6.44639596 L18.9652828,6.95224937 L18.183667,10.2203515 C18.7051296,10.3446469 19.2312171,10.4700985 19.7434299,10.6030657 L20.5198426,7.35635399 L22.4675228,7.8622074 L21.6691415,11.1967931 C24.1284563,12.0795796 25.926982,13.4028921 25.5731737,15.8645194 M22.0385591,0.55363727 C12.5319836,-1.91723987 2.90111269,4.11426719 0.531406238,14.0266816 C-1.84003457,23.9367836 3.94692849,33.9752278 13.4529259,36.4466831 C22.9623919,38.9169821 32.5932628,32.8860532 34.9641255,22.974795 C37.3344101,13.0641149 31.5486033,3.0245144 22.0385591,0.55363727" id="Fill-5" fill="#252525" mask="url(#mask-2)"></path>
                        </g>
                        <path d="M46.175745,31.2366242 C47.2238732,31.2366242 48.2118772,30.9677992 49.1397569,30.4405554 C50.0705272,29.9121554 50.8735334,29.1987575 51.5464629,28.3101899 C52.2193925,27.4169973 52.7518393,26.4116498 53.1397567,25.287788 C53.5282521,24.1650825 53.7242341,22.9932369 53.7242341,21.7745638 C53.7242341,20.2755033 53.4843151,19.1082827 53.0056332,18.2630739 C52.5269514,17.4219119 51.6412743,16.9987294 50.3555395,16.9987294 C49.9335132,16.9987294 49.3906602,17.0825566 48.7171525,17.2322892 C48.0413324,17.3912717 47.4366207,17.7213772 46.894924,18.2179807 L43.9320683,31.045267 C44.1101287,31.0787979 44.2685331,31.1094382 44.4032346,31.1389222 C44.5356237,31.1712968 44.6813094,31.1938434 44.8264171,31.2088745 C44.9801965,31.2267962 45.1565226,31.236046 45.368692,31.236046 C45.5808613,31.236046 45.8462176,31.2366242 46.175745,31.2366242 M52.0141605,11.1932666 C53.4542529,11.1932666 54.6972071,11.4620915 55.7424447,11.9899135 C56.7923074,12.5229384 57.6589065,13.2409612 58.3543827,14.1439818 C59.0394528,15.0516274 59.549353,16.1124742 59.8794585,17.3282568 C60.2066734,18.5475081 60.3708589,19.858102 60.3708589,21.2606167 C60.3708589,23.4164194 59.9921915,25.4519736 59.2267631,27.371326 C58.4619127,29.2935689 57.4241905,30.9608618 56.1037686,32.3836106 C54.785081,33.804047 53.2276306,34.9232838 51.4314174,35.7511491 C49.6386729,36.5784362 47.6886803,36.9923688 45.5958924,36.9923688 C45.324755,36.9923688 44.8483856,36.9842752 44.1766123,36.9698222 C43.5042608,36.9559474 42.7318949,36.8836826 41.866452,36.7616997 C40.995806,36.6350918 40.0748637,36.4477815 39.1024689,36.1963001 C38.1306523,35.9500217 37.2079756,35.6054633 36.3384859,35.1672497 L44.1101287,1.12938517 L51.0712498,0.00494529772 L48.2887669,12.0835686 C48.8848068,11.8037594 49.4848935,11.5869651 50.0838239,11.4291388 C50.6833325,11.2742031 51.326778,11.1932666 52.0141605,11.1932666" id="Fill-8" fill="#252525"></path>
                        <path d="M70.8250279,8.7148161 C69.8971483,8.7148161 69.0559863,8.42749137 68.3090576,7.8499513 C67.5563477,7.27645805 67.1840396,6.39367158 67.1840396,5.20390435 C67.1840396,4.54947456 67.3112256,3.93551305 67.5644414,3.35681674 C67.8211258,2.77869855 68.1570125,2.28036067 68.5773044,1.85717816 C68.9970182,1.43746436 69.4832156,1.10215581 70.0358966,0.849518158 C70.5914682,0.600927338 71.1828831,0.476053809 71.8130319,0.476053809 C72.7403335,0.476053809 73.5774486,0.763956667 74.3266898,1.34091862 C75.0736185,1.92077116 75.4488172,2.80355763 75.4488172,3.98696556 C75.4488172,4.64370783 75.3222093,5.25998181 75.0666811,5.8381 C74.8134653,6.41621819 74.4775787,6.91397795 74.0572867,7.33716046 C73.6404635,7.75745239 73.1496412,8.0916047 72.5986945,8.34192987 C72.0419667,8.59514564 71.4528643,8.7148161 70.8250279,8.7148161 L70.8250279,8.7148161 Z M67.5898786,36.3413499 L60.9409413,36.3413499 L66.5562033,11.7158276 L73.2502337,11.7158276 L67.5898786,36.3413499 Z" id="Fill-10" fill="#252525"></path>
                        <path d="M79.0769135,5.5797968 L86.0409252,4.45535692 L84.3314297,11.7142089 L91.7891544,11.7142089 L90.442139,17.4248603 L83.0289295,17.4248603 L81.0546558,26.0393995 C80.8725486,26.756266 80.7696436,27.4268831 80.7401596,28.0500945 C80.7077849,28.6767746 80.7835184,29.2144246 80.9633132,29.6670911 C81.1425298,30.1209139 81.4633854,30.4712535 81.9293487,30.7169537 C82.3929995,30.9690133 83.0572573,31.0956211 83.9273251,31.0956211 C84.6447698,31.0956211 85.3442928,31.0245126 86.0195348,30.8834518 C86.6913082,30.7452815 87.3717533,30.55219 88.060292,30.2989743 L88.5568956,35.6384739 C87.659078,35.9818761 86.6861051,36.2772945 85.6368206,36.5258853 C84.5875361,36.7779448 83.3440039,36.8987715 81.9079583,36.8987715 C79.8417639,36.8987715 78.2403765,36.5790721 77.0997493,35.9431421 C75.9602784,35.3025872 75.1549597,34.42616 74.6728092,33.3179074 C74.197596,32.2131236 73.9854266,30.9395292 74.0449728,29.5040618 C74.1062533,28.0662818 74.3137978,26.5533465 74.6728092,24.9617872 L79.0769135,5.5797968 Z" id="Fill-12" fill="#252525"></path>
                        <path d="M91.4969156,26.5083111 C91.4969156,24.3866174 91.826443,22.3869066 92.4843415,20.5138036 C93.1416619,18.6395445 94.0880413,17.0005794 95.3159644,15.594596 C96.5404187,14.1949718 98.0313855,13.0861412 99.7877085,12.2721507 C101.534204,11.4627853 103.491134,11.0546338 105.646358,11.0546338 C106.996264,11.0546338 108.202219,11.187601 109.262488,11.4541135 C110.327959,11.7229385 111.290526,12.0703875 112.162328,12.5062886 L109.87009,17.9405996 C109.270581,17.6873838 108.649104,17.4642302 108.005659,17.2618888 C107.362213,17.0555006 106.577129,16.9560643 105.648093,16.9560643 C103.428119,16.9560643 101.674108,17.7532893 100.368717,19.3419581 C99.0673733,20.9329393 98.4123654,23.0742891 98.4123654,25.75907 C98.4123654,27.3512074 98.7424709,28.6375204 99.4038381,29.6220557 C100.061158,30.606591 101.276941,31.0968352 103.04078,31.0968352 C103.911426,31.0968352 104.752009,31.0014457 105.557328,30.817026 C106.36785,30.6297157 107.084138,30.3938435 107.714865,30.1151905 L108.212047,35.6859374 C107.370885,36.0258709 106.443005,36.3328516 105.426673,36.6016766 C104.406873,36.8612516 103.193403,36.9965313 101.786263,36.9965313 C99.9293475,36.9965313 98.3562879,36.7126753 97.0699749,36.1553693 C95.7830839,35.5888135 94.7199245,34.8361036 93.8816531,33.883943 C93.0393349,32.9288917 92.4357796,31.8131236 92.0617371,30.5337481 C91.6882727,29.2543725 91.4969156,27.9090915 91.4969156,26.5083111" id="Fill-14" fill="#252525"></path>
                        <path d="M124.355303,16.9561221 C123.37019,16.9561221 122.498388,17.2544311 121.752615,17.8435335 C121.003374,18.4395734 120.37496,19.1893927 119.86795,20.0918352 C119.355737,21.0000588 118.976492,21.9897972 118.719807,23.0656751 C118.464857,24.1438655 118.339406,25.163666 118.339406,26.132014 C118.339406,27.6940893 118.582215,28.9116062 119.05685,29.7874553 C119.538423,30.6581013 120.4056,31.0963149 121.662429,31.0963149 C122.651589,31.0963149 123.518766,30.8003184 124.269164,30.2054347 C125.013202,29.6140198 125.643351,28.8642006 126.153829,27.9582894 C126.662573,27.0558469 127.046444,26.0626398 127.303128,24.9850275 C127.554609,23.9103058 127.682374,22.8853023 127.682374,21.9186886 C127.682374,20.360082 127.441876,19.1402526 126.962038,18.2655598 C126.483356,17.3943357 125.613289,16.9561221 124.355303,16.9561221 M121.033436,36.9942766 C119.445924,36.9942766 118.067112,36.7422171 116.898157,36.2433011 C115.732093,35.7449632 114.767213,35.044284 114.003519,34.1360603 C113.237513,33.2336178 112.665754,32.1635211 112.273211,30.930395 C111.881247,29.6972689 111.692781,28.3323318 111.692781,26.8373182 C111.692781,24.9619028 111.981262,23.0864874 112.565161,21.2151188 C113.147326,19.3408596 114.009878,17.6573795 115.150506,16.1606315 C116.283039,14.661571 117.681507,13.4359605 119.325097,12.4803311 C120.968687,11.531061 122.859134,11.0535354 124.982562,11.0535354 C126.54059,11.0535354 127.911308,11.3061731 129.097029,11.8050891 C130.276968,12.3028488 131.248785,13.0087311 132.016526,13.9117517 C132.777329,14.8193973 133.354869,15.8848691 133.742208,17.1197296 C134.133594,18.3499651 134.326108,19.7183708 134.326108,21.2151188 C134.326108,23.084753 134.041674,24.9607465 133.475696,26.836162 C132.909718,28.7034837 132.069134,30.3915888 130.959726,31.8912274 C129.852629,33.3885535 128.468614,34.6135859 126.805946,35.5651685 C125.145591,36.5173291 123.218723,36.9942766 121.033436,36.9942766" id="Fill-16" fill="#252525"></path>
                        <path d="M144.802303,8.7148161 C143.875002,8.7148161 143.034418,8.42749137 142.289223,7.8499513 C141.539404,7.27645805 141.164205,6.39367158 141.164205,5.20390435 C141.164205,4.54947456 141.293126,3.93551305 141.546341,3.35681674 C141.799557,2.77869855 142.137178,2.28036067 142.55747,1.85717816 C142.976028,1.43746436 143.466272,1.10215581 144.017797,0.849518158 C144.570478,0.600927338 145.161893,0.476053809 145.789151,0.476053809 C146.719343,0.476053809 147.558771,0.763956667 148.306856,1.34091862 C149.054941,1.92077116 149.431874,2.80355763 149.431874,3.98696556 C149.431874,4.64370783 149.298328,5.25998181 149.046847,5.8381 C148.795365,6.41621819 148.457744,6.91397795 148.039187,7.33716046 C147.617739,7.75745239 147.132698,8.0916047 146.580595,8.34192987 C146.023289,8.59514564 145.434186,8.7148161 144.802303,8.7148161 L144.802303,8.7148161 Z M141.571779,36.3413499 L134.918216,36.3413499 L140.5329,11.7158276 L147.229821,11.7158276 L141.571779,36.3413499 Z" id="Fill-18" fill="#252525"></path>
                        <path d="M152.022306,12.8350644 C152.526425,12.681285 153.090668,12.4962872 153.702895,12.295102 C154.318591,12.0939169 155.005974,11.9071847 155.773136,11.7377961 C156.532784,11.5637825 157.389555,11.4227217 158.332466,11.3134574 C159.273642,11.2018805 160.348364,11.1475374 161.540443,11.1475374 C165.047308,11.1475374 167.464999,12.211853 168.798717,14.3341249 C170.132436,16.4563968 170.363105,19.3602844 169.49824,23.0423192 L166.439417,36.3390375 L159.747121,36.3390375 L162.711711,23.3215502 C162.892084,22.5092942 163.033723,21.7230534 163.139518,20.9558906 C163.245314,20.194509 163.239533,19.5233137 163.115237,18.9434612 C162.997301,18.369968 162.718648,17.900536 162.286794,17.5368997 C161.848002,17.1790445 161.185479,16.9992497 160.286505,16.9992497 C159.419906,16.9992497 158.537698,17.0963736 157.637568,17.2836839 L153.279713,36.3373031 L146.584526,36.3373031 L152.022306,12.8350644 Z" id="Fill-20" fill="#252525"></path>
                    </g>
                    <rect id="Rectangle-Copy-38" x="0" y="0" width="192" height="105"></rect>
                </g>
            </g>
        </g>
    </g>
</svg>