<?xml version="1.0" encoding="UTF-8"?>
<svg width="192px" height="105px" viewBox="0 0 192 105" version="1.1" xmlns="http://www.w3.org/2000/svg" xmlns:xlink="http://www.w3.org/1999/xlink">
    <title>BC5B51F5-FFC3-4B6A-8E56-FFE6AAE7A2EE@3x</title>
    <defs>
        <polygon id="path-1" points="0 0 161.424358 0 161.424358 48 0 48"></polygon>
    </defs>
    <g id="Page-1" stroke="none" stroke-width="1" fill="none" fill-rule="evenodd">
        <g id="Cenefas" transform="translate(-988.000000, -2608.000000)">
            <g id="Group-2" transform="translate(400.000000, 2056.000000)">
                <g id="logo_13" transform="translate(588.000000, 552.000000)">
                    <g id="Group-3" transform="translate(15.000000, 29.000000)">
                        <mask id="mask-2" fill="white">
                            <use xlink:href="#path-1"></use>
                        </mask>
                        <g id="Clip-2"></g>
                        <path d="M27.7638222,30.8989355 C26.0129868,29.6253587 23.5719329,29.9968978 22.2987364,31.7481135 L17.682068,38.063518 C16.4088715,39.8147337 16.7800304,42.2557876 18.531246,43.5293644 C20.2820814,44.8029412 22.7231352,44.4317823 23.9963318,42.6801864 L28.6130001,36.3651621 C29.8861967,34.6139465 29.5150378,32.1725123 27.7638222,30.8989355 L27.7638222,30.8989355 Z M34.9268836,40.9289708 C33.1760482,39.655394 30.7353746,40.0269331 29.4617978,41.7781487 C28.188221,43.5293644 28.5597601,45.9707986 30.3105955,47.2443754 C32.0618111,48.5179522 34.5024847,48.146413 35.7760615,46.3951974 C37.0496383,44.6439818 36.6780992,42.2025476 34.9268836,40.9289708 L34.9268836,40.9289708 Z M7.06981535,6.22181627 C8.34339215,4.47060064 7.97185303,2.02916646 6.22101767,0.755589653 C4.46980204,-0.517987149 2.02912843,-0.146448022 0.755551625,1.60476762 C-0.518025178,3.35598326 -0.146486051,5.79703715 1.60472959,7.07099424 C3.35556494,8.34457104 5.79623855,7.97303191 7.06981535,6.22181627 L7.06981535,6.22181627 Z M29.7268569,8.23847133 C27.9760216,6.96451424 25.5349677,7.33605337 24.2617712,9.08764929 L5.90233826,34.3485071 C4.62914174,36.0997227 5.00030058,38.5407766 6.75151622,39.8147337 C8.50235158,41.0883105 10.9434055,40.7167714 12.216602,38.9655557 L30.5760349,13.7043177 C31.9024714,11.953102 31.4780726,9.51204813 29.7268569,8.23847133 L29.7268569,8.23847133 Z M8.82103099,17.1538892 C10.5718663,18.4278463 13.0129202,18.0563072 14.2861168,16.3047113 L18.8495451,9.98968697 C20.1231219,8.23847133 19.7515828,5.79703715 18.0007475,4.52346035 C16.2495318,3.24988355 13.8088582,3.62142267 12.5352814,5.37263831 L7.91899332,11.6876626 C6.69865651,13.4392585 7.06981535,15.8803124 8.82103099,17.1538892 L8.82103099,17.1538892 Z M161.424358,26.4944665 C161.424358,21.346539 159.037685,17.1542695 152.564461,17.1542695 C149.645769,17.1542695 147.576254,18.0034475 146.142957,19.4359837 C144.711181,18.0563072 142.641667,17.1542695 139.722974,17.1542695 C133.24937,17.1542695 130.861557,21.399779 130.861557,26.4944665 L130.861557,38.010278 C130.861557,39.3903348 131.975794,40.5045719 133.30261,40.5045719 C134.681526,40.5045719 135.796524,39.3903348 135.796524,38.010278 L135.796524,26.4944665 C135.796524,23.4692938 136.751041,21.6119785 139.722974,21.6119785 C142.747006,21.6119785 143.649804,23.4692938 143.649804,26.4944665 L143.649804,38.010278 C143.649804,39.3903348 144.764421,40.5045719 146.089717,40.5045719 C147.469774,40.5045719 148.584391,39.3903348 148.584391,38.010278 L148.584391,26.4944665 C148.584391,23.4692938 149.538908,21.6119785 152.511221,21.6119785 C155.535253,21.6119785 156.437671,23.4692938 156.437671,26.4944665 L156.437671,38.010278 C156.437671,39.3903348 157.551148,40.5045719 158.877965,40.5045719 C160.257641,40.5045719 161.372639,39.3903348 161.372639,38.010278 L161.424358,26.4944665 Z M123.592395,17.1010295 C122.212719,17.1010295 121.098482,18.2152666 121.098482,19.5949431 L121.098482,31.1111349 C121.098482,34.1363076 119.772045,35.993623 116.747633,35.993623 C113.722841,35.993623 112.449644,34.1363076 112.449644,31.1111349 L112.449644,19.5949431 C112.449644,18.2152666 111.335407,17.1010295 110.00859,17.1010295 C108.629294,17.1010295 107.514677,18.2152666 107.514677,19.5949431 L107.514677,31.1111349 C107.514677,36.2586821 110.27403,40.4513319 116.800493,40.4513319 C123.274096,40.4513319 126.086309,36.2058224 126.086309,31.1111349 L126.086309,19.5949431 C126.033449,18.2152666 124.918832,17.1010295 123.592395,17.1010295 L123.592395,17.1010295 Z M72.7067465,25.857488 C72.7067465,20.7095605 70.0006335,17.3664689 63.6863698,17.3664689 L59.1229414,17.3664689 L59.1229414,10.4144661 C59.1229414,9.0344093 58.0087043,7.9201722 56.6822678,7.9201722 C55.3025913,7.9201722 54.1883542,9.0344093 54.1883542,10.4144661 L54.1883542,31.1115152 C54.1883542,36.2590624 56.9473269,40.4513319 63.4737901,40.4513319 C69.9473935,40.4513319 72.7596062,36.2062027 72.7596062,31.1115152 L72.7596062,25.9635877 L72.7596062,25.857488 L72.7067465,25.857488 Z M67.7189193,31.1115152 C67.7189193,34.1363076 66.3924828,35.993623 63.3676903,35.993623 C60.3432782,35.993623 59.0700817,34.1363076 59.0700817,31.1115152 L59.0700817,21.7180782 L63.5798898,21.7180782 C67.2412805,21.7180782 67.7189193,23.7347332 67.7189193,25.9635877 L67.7189193,31.1115152 Z M104.119106,19.5420834 C104.119106,18.0030672 102.898389,17.4193286 101.784152,17.4193286 L89.4210635,17.4193286 C88.2003464,17.4193286 87.245449,18.3746063 87.245449,19.5420834 C87.245449,20.7628005 88.2003464,21.7180782 89.4210635,21.7180782 L97.5394026,21.7180782 L87.0332496,36.3651621 C86.7149505,36.789561 86.5556108,37.3732995 86.5556108,37.8509383 C86.5556108,39.3899546 87.7759476,40.2391325 88.837325,40.2391325 L101.943491,40.2391325 C103.163828,40.2391325 104.119106,39.2838548 104.119106,38.0631378 C104.119106,36.842801 103.163828,35.8875233 101.943491,35.8875233 L93.1353139,35.8875233 L103.429267,21.5587385 C103.959766,20.8156602 104.119106,20.179062 104.119106,19.5420834 L104.119106,19.5420834 Z M79.8169482,7.9201722 C78.277932,7.9201722 77.0047355,9.193749 77.0047355,10.7327652 C77.0047355,12.2717814 78.277932,13.5985982 79.8169482,13.5985982 C81.3555841,13.5985982 82.6291609,12.3246412 82.6291609,10.7327652 C82.6291609,9.193749 81.3555841,7.9201722 79.8169482,7.9201722 L79.8169482,7.9201722 Z M79.8169482,17.1010295 C78.4372717,17.1010295 77.3230346,18.2152666 77.3230346,19.5420834 L77.3230346,37.957038 C77.3230346,39.3367146 78.4372717,40.4513319 79.8169482,40.4513319 C81.1966247,40.4513319 82.3108618,39.3367146 82.3108618,37.957038 L82.3108618,19.5420834 C82.3108618,18.2152666 81.1966247,17.1010295 79.8169482,17.1010295 L79.8169482,17.1010295 Z" id="Fill-1" fill="#252525" mask="url(#mask-2)"></path>
                    </g>
                    <rect id="Rectangle-Copy-43" x="0" y="0" width="192" height="105"></rect>
                </g>
            </g>
        </g>
    </g>
</svg>