<?xml version="1.0" encoding="UTF-8"?>
<svg width="192px" height="105px" viewBox="0 0 192 105" version="1.1" xmlns="http://www.w3.org/2000/svg" xmlns:xlink="http://www.w3.org/1999/xlink">
    <title>4C577809-74CE-4BED-B8A6-285232F4AF4D@3x</title>
    <g id="Page-1" stroke="none" stroke-width="1" fill="none" fill-rule="evenodd">
        <g id="Cenefas" transform="translate(-400.000000, -2262.000000)">
            <g id="Group-2" transform="translate(400.000000, 2056.000000)">
                <g id="logo_1" transform="translate(0.000000, 206.000000)">
                    <g id="logo_master" transform="translate(48.000000, 16.000000)">
                        <path d="M15.8160373,66.576875 C15.5507267,66.2916128 15.2360665,66.070389 14.8711512,65.9122334 C14.5066886,65.7540778 14.1073645,65.675 13.6740841,65.675 C13.4445407,65.675 13.206395,65.695861 12.9591943,65.7385533 C12.7115409,65.7807605 12.4693204,65.855472 12.2320802,65.9626879 C11.9952927,66.070389 11.7693712,66.2183566 11.5552212,66.4075612 C11.3410712,66.5967657 11.1549915,66.8349694 10.9969823,67.1231425 C10.7420849,66.6714773 10.3966378,66.3173252 9.960641,66.060201 C9.5246442,65.8035621 9.02571536,65.675 8.46521273,65.675 C8.2764166,65.675 8.081282,65.6934353 7.87980892,65.7298208 C7.67833584,65.7666914 7.47822101,65.8302448 7.27946442,65.9204808 C7.08025508,66.0107168 6.89055346,66.1334572 6.70945407,66.2887019 C6.52835467,66.4444318 6.36400697,66.6404283 6.21595821,66.8776617 L6.21595821,65.886521 L4.625,65.886521 L4.625,74 L6.23135166,74 L6.23135166,69.5027535 C6.23135166,69.1587893 6.28251224,68.8521809 6.38438065,68.5838986 C6.48624906,68.3161014 6.62252636,68.0914816 6.79366529,67.9105245 C6.96435147,67.7300524 7.1644663,67.593243 7.39400979,67.5000962 C7.62355328,67.4069493 7.86849021,67.3603759 8.12836785,67.3603759 C8.66894955,67.3603759 9.0886474,67.5437587 9.38655591,67.9105245 C9.68491717,68.2777753 9.83432417,68.8026967 9.83432417,69.4857736 L9.83432417,74 L11.4406758,74 L11.4406758,69.5027535 C11.4406758,69.1587893 11.4913837,68.8521809 11.5937048,68.5838986 C11.6955732,68.3161014 11.8318505,68.0914816 12.0029895,67.9105245 C12.1736756,67.7300524 12.3737905,67.593243 12.603334,67.5000962 C12.8328774,67.4069493 13.0773616,67.3603759 13.337692,67.3603759 C13.8782737,67.3603759 14.2975188,67.5437587 14.5958801,67.9105245 C14.8942413,68.2777753 15.0431956,68.8026967 15.0431956,69.4857736 L15.0431956,74 L16.65,74 L16.65,68.9016652 C16.65,68.4271984 16.5771075,67.9925131 16.4317752,67.5976093 C16.286443,67.2022203 16.0808951,66.8621372 15.8160373,66.576875" id="Fill-1" fill="#252525"></path>
                        <path d="M24.9984666,70.8449494 C24.8808123,71.1534054 24.7149392,71.4202293 24.5018115,71.6458942 C24.2886838,71.8720322 24.0331234,72.0494417 23.7356125,72.1785958 C23.4381017,72.308223 23.1073197,72.3725635 22.7427845,72.3725635 C22.3608905,72.3725635 22.0199826,72.3053844 21.7195786,72.1705532 C21.4196568,72.035722 21.165543,71.8540547 20.9577194,71.6255512 C20.7503779,71.3970478 20.5902911,71.1288046 20.4784231,70.8203486 C20.366073,70.5118927 20.3096568,70.184513 20.3096568,69.8372635 C20.3096568,69.490487 20.366073,69.1631073 20.4784231,68.8546514 C20.5902911,68.5461954 20.7503779,68.2779522 20.9577194,68.0494488 C21.165543,67.8209453 21.4196568,67.639278 21.7195786,67.5044468 C22.0199826,67.3696156 22.3608905,67.3019634 22.7427845,67.3019634 C23.1073197,67.3019634 23.4381017,67.366777 23.7356125,67.4959311 C24.0331234,67.6255583 24.2886838,67.8029678 24.5018115,68.0286327 C24.7149392,68.2547707 24.8808123,68.5215946 24.9984666,68.8300506 C25.1161208,69.1380335 25.1754301,69.4739288 25.1754301,69.8372635 C25.1754301,70.2005981 25.1161208,70.5364934 24.9984666,70.8449494 L24.9984666,70.8449494 Z M25.0659731,66.8392794 C24.7848566,66.487299 24.4371981,66.204863 24.022033,65.9929178 C23.6068679,65.7809726 23.1102129,65.675 22.5320678,65.675 C21.965013,65.675 21.43798,65.7781341 20.9495222,65.9848753 C20.4615465,66.1911434 20.0348089,66.4787833 19.6702737,66.8477951 C19.3052563,67.2168068 19.0188358,67.6558362 18.8114944,68.1648832 C18.6036707,68.6744033 18.5,69.2317057 18.5,69.8372635 C18.5,70.4432943 18.6036707,71.0005967 18.8114944,71.5096437 C19.0188358,72.0191638 19.3052563,72.4581932 19.6702737,72.8272049 C20.0348089,73.1957436 20.4615465,73.4838566 20.9495222,73.6901247 C21.43798,73.8963929 21.965013,74 22.5320678,74 C23.1102129,74 23.6068679,73.8949736 24.022033,73.6858669 C24.4371981,73.4767602 24.7848566,73.1957436 25.0659731,72.8437631 L25.0659731,73.7932588 L26.825,73.7932588 L26.825,65.8812681 L25.0659731,65.8812681 L25.0659731,66.8392794 Z" id="Fill-3" fill="#252525"></path>
                        <path d="M34.4773637,69.8251751 C34.0289395,69.4473693 33.4044738,69.1951828 32.6044045,69.0681414 L31.8476887,68.9439443 C31.6795296,68.9164503 31.5214426,68.88469 31.3734276,68.8486633 C31.2258505,68.8131107 31.0984174,68.7647591 30.9911284,68.7040827 C30.8842774,68.6434062 30.7988841,68.5661385 30.7353865,68.4722796 C30.671451,68.3784207 30.6394833,68.2627562 30.6394833,68.1248121 C30.6394833,67.8432354 30.7607855,67.6156987 31.0029521,67.4417279 C31.2446808,67.2682311 31.5849401,67.1814827 32.0232923,67.1814827 C32.2527594,67.1814827 32.4782852,67.2032883 32.6998698,67.2473736 C32.9218923,67.2914588 33.1316533,67.3469209 33.3304663,67.4128118 C33.5292794,67.4791766 33.710138,67.552178 33.87348,67.6322899 C34.0363841,67.7124018 34.1738892,67.7882474 34.2864331,67.8598266 L34.9743964,66.5107234 C34.5920973,66.246212 34.1458626,66.0404809 33.6361305,65.8944781 C33.1268362,65.7484754 32.5838225,65.675 32.0079653,65.675 C31.5389592,65.675 31.1185615,65.7342544 30.7467723,65.8532371 C30.3745452,65.9717458 30.0574953,66.1400282 29.7947467,66.3580842 C29.5324361,66.5756662 29.3309955,66.8420738 29.190863,67.1563589 C29.0507304,67.470644 28.9806641,67.8238 28.9806641,68.2158268 C28.9806641,68.8557738 29.190863,69.3729458 29.6112607,69.7673428 C30.0320962,70.1617398 30.6499932,70.4196148 31.4653896,70.5409677 L32.2295499,70.6485736 C32.66834,70.7149385 32.9893311,70.8211223 33.1929612,70.967125 C33.3965914,71.1136018 33.4990633,71.2994235 33.4990633,71.5255381 C33.4990633,71.823706 33.3584928,72.0593013 33.0782277,72.2332721 C32.7979626,72.4072429 32.3828199,72.4939913 31.8323617,72.4939913 C31.5315146,72.4939913 31.2626353,72.4717117 31.0257237,72.4276264 C30.7888121,72.3835412 30.5720445,72.3242868 30.3758589,72.2498633 C30.1796733,72.1754399 30.0036318,72.0901136 29.8486102,71.9934105 C29.6931506,71.8967074 29.5490768,71.7933678 29.4163888,71.6829177 L28.675,72.9822472 C28.9399381,73.197459 29.2175757,73.3714298 29.5083508,73.5036855 C29.7986879,73.6359412 30.084208,73.7392808 30.3644732,73.8137043 C30.6447383,73.8886018 30.9096764,73.9379014 31.1597254,73.9630253 C31.4093365,73.9876751 31.6282937,74 31.8170347,74 C32.341656,74 32.8119759,73.9364793 33.2275565,73.809912 C33.6426992,73.6828707 33.9917168,73.5051076 34.2746094,73.2756748 C34.557502,73.04719 34.7742696,72.7741459 34.9244742,72.4565425 C35.0746788,72.1394132 35.15,71.7905236 35.15,71.4098736 C35.15,70.7315297 34.9257879,70.2029809 34.4773637,69.8251751" id="Fill-5" fill="#252525"></path>
                        <path d="M45.2175439,69.1602688 C45.2599338,68.8740481 45.3342301,68.611009 45.4404327,68.3716244 C45.5466354,68.1322399 45.6829212,67.9254987 45.8502017,67.752347 C46.0174823,67.5787222 46.2162134,67.4453103 46.4468509,67.3516381 C46.6779443,67.2579658 46.9413998,67.2111297 47.2385848,67.2111297 C47.7691423,67.2111297 48.2012458,67.381916 48.5358069,67.7234884 C48.8699122,68.0645877 49.0818617,68.5438299 49.1721112,69.1602688 L45.2175439,69.1602688 Z M49.8685818,66.826979 C49.5527087,66.4612789 49.1734786,66.1774237 48.7304358,65.9763596 C48.2878488,65.7757686 47.8010487,65.675 47.2704912,65.675 C46.7080274,65.675 46.1952464,65.7757686 45.7307807,65.9763596 C45.2667709,66.1774237 44.8674854,66.4612789 44.53338,66.826979 C44.1992747,67.1936253 43.9390099,67.6321816 43.7534971,68.1445403 C43.5679843,68.6564258 43.475,69.2208246 43.475,69.8372635 C43.475,70.4650565 43.5702633,71.0351324 43.7617016,71.547018 C43.952684,72.0593766 44.2202418,72.4969867 44.5652864,72.8603214 C44.9098753,73.223656 45.3210117,73.5046727 45.7982399,73.7024251 C46.2759239,73.9006507 46.8010117,74 47.373959,74 C47.9519202,74 48.5025331,73.9172089 49.024886,73.7520998 C49.5476948,73.5869907 50.0422436,73.2979315 50.5089883,72.8849221 L49.6817016,71.6544098 C49.3630936,71.9188683 49.0116677,72.1241902 48.6274238,72.2699025 C48.2427241,72.4156149 47.8593917,72.488471 47.4774269,72.488471 C47.2066785,72.488471 46.9468694,72.4501506 46.6975439,72.3730366 C46.4482184,72.2959226 46.2230505,72.1762303 46.0211287,72.0134867 C45.8196628,71.8512161 45.6473683,71.6435287 45.5037897,71.3899514 C45.3606668,71.1368472 45.2626686,70.8312298 45.2097952,70.4735722 L50.8430936,70.4735722 C50.854033,70.3742229 50.8617816,70.2696695 50.8672513,70.1594391 C50.8722652,70.0496818 50.875,69.9394513 50.875,69.8292209 C50.875,69.212782 50.786118,68.6498025 50.6083539,68.1402824 C50.4305898,67.6312354 50.1839991,67.1936253 49.8685818,66.826979 L49.8685818,66.826979 Z" id="Fill-7" fill="#252525"></path>
                        <path d="M73.0984666,70.8449494 C72.9803301,71.1534054 72.8149392,71.4202293 72.6018115,71.6458942 C72.3882016,71.8720322 72.1331234,72.0494417 71.8356125,72.1785958 C71.5381017,72.308223 71.2073197,72.3725635 70.8423023,72.3725635 C70.4608905,72.3725635 70.1199826,72.3053844 69.8195786,72.1705532 C69.5196568,72.035722 69.265543,71.8540547 69.0577194,71.6255512 C68.8503779,71.3970478 68.6902911,71.1288046 68.5779409,70.8203486 C68.466073,70.5118927 68.4096568,70.184513 68.4096568,69.8372635 C68.4096568,69.490487 68.466073,69.1631073 68.5779409,68.8546514 C68.6902911,68.5461954 68.8503779,68.2779522 69.0577194,68.0494488 C69.265543,67.8209453 69.5196568,67.639278 69.8195786,67.5044468 C70.1199826,67.3696156 70.4608905,67.3019634 70.8423023,67.3019634 C71.2073197,67.3019634 71.5381017,67.366777 71.8356125,67.4959311 C72.1331234,67.6255583 72.3882016,67.8029678 72.6018115,68.0286327 C72.8149392,68.2547707 72.9803301,68.5215946 73.0984666,68.8300506 C73.2161208,69.1380335 73.2749479,69.4739288 73.2749479,69.8372635 C73.2749479,70.2005981 73.2161208,70.5364934 73.0984666,70.8449494 L73.0984666,70.8449494 Z M73.1654909,66.8392794 C72.8848566,66.487299 72.5371981,66.204863 72.122033,65.9929178 C71.7068679,65.7809726 71.2097307,65.675 70.6320678,65.675 C70.065013,65.675 69.5374978,65.7781341 69.0495222,65.9848753 C68.5610643,66.1911434 68.1348089,66.4787833 67.7697915,66.8477951 C67.4052563,67.2168068 67.1188358,67.6558362 66.9114944,68.1648832 C66.7036707,68.6744033 66.6,69.2317057 66.6,69.8372635 C66.6,70.4432943 66.7036707,71.0005967 66.9114944,71.5096437 C67.1188358,72.0191638 67.4052563,72.4581932 67.7697915,72.8272049 C68.1348089,73.1957436 68.5610643,73.4838566 69.0495222,73.6901247 C69.5374978,73.8963929 70.065013,74 70.6320678,74 C71.2097307,74 71.7068679,73.8949736 72.122033,73.6858669 C72.5371981,73.4767602 72.8848566,73.1957436 73.1654909,72.8437631 L73.1654909,73.7932588 L74.925,73.7932588 L74.925,65.8812681 L73.1654909,65.8812681 L73.1654909,66.8392794 Z" id="Fill-9" fill="#252525"></path>
                        <path d="M41.4379554,72.2734138 C41.1611212,72.3746006 40.8885243,72.425423 40.6201647,72.425423 C40.4445539,72.425423 40.2816549,72.3988672 40.1309969,72.3452977 C39.9803388,72.292186 39.8489839,72.2083978 39.7364611,72.0934752 C39.6244092,71.9790105 39.534956,71.831122 39.4695139,71.6502677 C39.403601,71.4689556 39.3706446,71.2505569 39.3706446,70.9946137 L39.3706446,67.6614004 L42.1295699,67.6614004 L42.1295699,66.1426821 L39.3706446,66.1426821 L39.3706446,63.825 L37.6446684,63.825 L37.6446684,66.1426821 L36.075,66.1426821 L36.075,67.6614004 L37.6446684,67.6614004 L37.6446684,71.0266638 C37.6446684,72.0444843 37.8927834,72.7944573 38.3885425,73.2765828 C38.8843016,73.7587083 39.578741,74 40.4723315,74 C40.9709154,74 41.4186523,73.925369 41.8160129,73.776107 C42.0787228,73.6776673 42.3221297,73.5645761 42.55,73.4404963 L41.9629045,72.0417372 C41.7967098,72.1282725 41.6220406,72.2061085 41.4379554,72.2734138" id="Fill-11" fill="#252525"></path>
                        <path d="M57.2227698,65.675 C56.7747517,65.675 56.3700478,65.765236 56.0082206,65.9461932 C55.646831,66.1266652 55.3440687,66.5618357 55.0994963,66.951403 L55.0994963,65.886521 L53.65,65.886521 L53.65,74 L55.1148094,74 L55.1148094,69.5371984 C55.1148094,69.1927491 55.1581236,68.8846853 55.2447522,68.6139773 C55.3309431,68.3427841 55.450823,68.1142832 55.6035167,67.9279895 C55.7562104,67.7416958 55.9395303,67.6005201 56.1534765,67.5044624 C56.3674227,67.4084047 56.6014947,67.3603759 56.85613,67.3603759 C57.0495128,67.3603759 57.2582088,67.3856031 57.4822179,67.4365428 C57.5968475,67.4627404 57.7036018,67.4942745 57.8033559,67.5321154 L58.275,65.8384921 C58.1472448,65.7938593 58.0173021,65.7550481 57.8834216,65.7298208 C57.6874137,65.6934353 57.4669047,65.675 57.2227698,65.675" id="Fill-13" fill="#252525"></path>
                        <path d="M80.3477698,65.675 C79.8997517,65.675 79.4950478,65.765236 79.1332206,65.9461932 C78.771831,66.1266652 78.4690687,66.5618357 78.2244963,66.951403 L78.2244963,65.886521 L76.775,65.886521 L76.775,74 L78.2398094,74 L78.2398094,69.5371984 C78.2398094,69.1927491 78.2831236,68.8846853 78.3697522,68.6139773 C78.4559431,68.3427841 78.575823,68.1142832 78.7285167,67.9279895 C78.8812104,67.7416958 79.0645303,67.6005201 79.2784765,67.5044624 C79.4924227,67.4084047 79.7264947,67.3603759 79.98113,67.3603759 C80.1745128,67.3603759 80.3832088,67.3856031 80.6072179,67.4365428 C80.7218475,67.4627404 80.8286018,67.4942745 80.9283559,67.5321154 L81.4,65.8384921 C81.2722448,65.7938593 81.1423021,65.7550481 81.0084216,65.7298208 C80.8124137,65.6934353 80.5919047,65.675 80.3477698,65.675" id="Fill-15" fill="#252525"></path>
                        <path d="M88.8234666,70.9101803 C88.7058123,71.212259 88.5399392,71.4735662 88.3268115,71.6945655 C88.1136838,71.916028 87.8581234,72.0897696 87.5606125,72.2162534 C87.2631017,72.3432006 86.9323197,72.4062109 86.5677845,72.4062109 C86.1858905,72.4062109 85.8449826,72.3404207 85.5450608,72.2083772 C85.2446568,72.0763336 84.990543,71.8984222 84.7827194,71.6746431 C84.5753779,71.450864 84.4152911,71.1881668 84.3034231,70.8860882 C84.191073,70.5840095 84.1346568,70.2633984 84.1346568,69.9233283 C84.1346568,69.5837215 84.191073,69.2631104 84.3034231,68.9610318 C84.4152911,68.6589532 84.5753779,68.3962559 84.7827194,68.1724768 C84.990543,67.9486977 85.2446568,67.7707864 85.5450608,67.6387428 C85.8449826,67.5066992 86.1858905,67.4404458 86.5677845,67.4404458 C86.9323197,67.4404458 87.2631017,67.5039194 87.5606125,67.6304032 C87.8581234,67.7573504 88.1136838,67.9310919 88.3268115,68.1520912 C88.5399392,68.3735537 88.7058123,68.634861 88.8234666,68.9369396 C88.9411208,69.238555 89.0004301,69.5675056 89.0004301,69.9233283 C89.0004301,70.279151 88.9411208,70.6081017 88.8234666,70.9101803 L88.8234666,70.9101803 Z M88.8909731,62.9 L88.8909731,66.9873278 C88.6103388,66.6426246 88.2621981,66.366028 87.847033,66.1584648 C87.4318679,65.9509016 86.9347307,65.84712 86.3570678,65.84712 C85.7904952,65.84712 85.26298,65.9481217 84.7745222,66.1505885 C84.2860643,66.352592 83.8598089,66.634285 83.4952737,66.9956674 C83.1302563,67.3570498 82.8438358,67.7870023 82.6364944,68.2855247 C82.4286707,68.7845104 82.325,69.3302905 82.325,69.9233283 C82.325,70.5168295 82.4286707,71.0626096 82.6364944,71.561132 C82.8438358,72.0601177 83.1302563,72.4900701 83.4952737,72.8514525 C83.8598089,73.2123717 84.2860643,73.4945279 84.7745222,73.6965314 C85.26298,73.8985349 85.7904952,74 86.3570678,74 C86.9347307,74 87.4318679,73.897145 87.847033,73.6923616 C88.2621981,73.4875783 88.6103388,73.2123717 88.8909731,72.8676684 L88.8909731,73.7975332 L90.65,73.7975332 L90.65,62.9 L88.8909731,62.9 Z" id="Fill-17" fill="#252525"></path>
                        <path d="M61.4985966,68.0082898 C61.7019928,67.7854634 61.9438813,67.6118387 62.2238246,67.4878886 C62.5042052,67.3639385 62.8068939,67.3019634 63.1327653,67.3019634 L63.1327653,67.3019634 C63.4910052,67.3019634 63.8243126,67.3639385 64.1322502,67.4878886 C64.4301273,67.6075808 64.6877626,67.7745823 64.9069057,67.9870006 L65.675,66.6050989 C65.3871833,66.3562525 65.0626241,66.1523498 64.7017598,65.9933909 C64.2206073,65.7814457 63.6974634,65.675 63.1327653,65.675 C62.5676299,65.675 62.0444859,65.7814457 61.5633334,65.9933909 C61.082181,66.2053361 60.667515,66.4967608 60.3188982,66.8686111 C59.9702814,67.2399884 59.6964619,67.6794908 59.4978771,68.1856993 C59.2992924,68.6923808 59.2,69.2430599 59.2,69.8377365 C59.2,70.4324132 59.2992924,70.9826192 59.4978771,71.4893007 C59.6964619,71.9959823 59.9702814,72.4350116 60.3188982,72.8063889 C60.667515,73.1782392 61.082181,73.470137 61.5633334,73.6820822 C62.0444859,73.8940274 62.5676299,74 63.1327653,74 C63.6974634,74 64.2206073,73.8940274 64.7017598,73.6820822 C65.0626241,73.5231233 65.3871833,73.3192206 65.675,73.0699011 L64.9069057,71.6879994 C64.6877626,71.9004177 64.4301273,72.0674192 64.1322502,72.1871114 C63.8243126,72.3110615 63.4910052,72.3730366 63.1327653,72.3730366 L63.1327653,72.3730366 C62.8068939,72.3730366 62.5042052,72.3110615 62.2238246,72.1871114 C61.9438813,72.0636344 61.7019928,71.8900097 61.4985966,71.6667102 C61.2947629,71.4438839 61.1346703,71.17706 61.0174441,70.8657655 C60.9002179,70.554944 60.8420422,70.2119523 60.8420422,69.8377365 C60.8420422,69.4630477 60.9002179,69.1205291 61.0174441,68.8092345 C61.1346703,68.4984131 61.2947629,68.2311161 61.4985966,68.0082898" id="Fill-19" fill="#252525"></path>
                        <path d="M93.3080581,72.8642062 L93.3080581,73.0143087 L93.4760962,73.0143087 C93.5108628,73.0143087 93.537201,73.0088899 93.5561646,72.9980521 C93.5746014,72.9872144 93.5840831,72.9677065 93.5840831,72.9406122 C93.5840831,72.9140598 93.5746014,72.8950937 93.5561646,72.8826303 C93.537201,72.870167 93.5108628,72.8642062 93.4760962,72.8642062 L93.3080581,72.8642062 Z M93.4803104,72.664792 C93.5893508,72.664792 93.6725797,72.6897188 93.7289436,72.7395723 C93.7858343,72.7899678 93.8142796,72.8566198 93.8142796,72.9406122 C93.8142796,73.0061804 93.7937358,73.060911 93.7531748,73.10372 C93.7126139,73.1470709 93.6536162,73.1757909 93.5761817,73.189338 L93.8242882,73.4835823 L93.5561646,73.4835823 L93.3338696,73.1974663 L93.3080581,73.1974663 L93.3080581,73.4835823 L93.0841828,73.4835823 L93.0841828,72.664792 L93.4803104,72.664792 Z M93.4281606,73.742604 C93.5171839,73.742604 93.6014664,73.7252636 93.6799544,73.6905829 C93.7589692,73.6553603 93.826922,73.6076743 93.8853929,73.5475249 C93.9433371,73.4868336 93.988639,73.4163884 94.0223519,73.3356473 C94.0555382,73.2543644 94.0723946,73.1676626 94.0723946,73.0739162 C94.0723946,72.9823374 94.0555382,72.8956356 94.0223519,72.8138108 C93.988639,72.7319859 93.9433371,72.6615407 93.8853929,72.6019332 C93.826922,72.5423257 93.7589692,72.4946397 93.6799544,72.459959 C93.6014664,72.4247364 93.5171839,72.407396 93.4281606,72.407396 C93.3359767,72.407396 93.2501139,72.4247364 93.1710991,72.459959 C93.0915575,72.4946397 93.0225513,72.5423257 92.9640803,72.6019332 C92.9050826,72.6615407 92.859254,72.7319859 92.8260678,72.8138108 C92.7928815,72.8956356 92.7760251,72.9823374 92.7760251,73.0739162 C92.7760251,73.1676626 92.7928815,73.2543644 92.8260678,73.3356473 C92.859254,73.4163884 92.9050826,73.4868336 92.9640803,73.5475249 C93.0225513,73.6076743 93.0915575,73.6553603 93.1710991,73.6905829 C93.2501139,73.7252636 93.3359767,73.742604 93.4281606,73.742604 L93.4281606,73.742604 Z M93.4281606,72.15 C93.5561646,72.15 93.6762671,72.1743849 93.7879413,72.2231547 C93.9001424,72.2719244 93.997594,72.3380346 94.0813497,72.4220269 C94.1645786,72.5054774 94.2304243,72.603017 94.2783599,72.7151875 C94.3262956,72.8268161 94.35,72.9465729 94.35,73.0739162 C94.35,73.2001757 94.3262956,73.3199326 94.2783599,73.4321031 C94.2304243,73.5448155 94.1645786,73.6428969 94.0813497,73.7274312 C93.997594,73.8119654 93.9001424,73.8786175 93.7879413,73.9268453 C93.6762671,73.9756151 93.5561646,74 93.4281606,74 C93.2975228,74 93.1753132,73.9756151 93.0620587,73.9268453 C92.9488041,73.8786175 92.850299,73.8119654 92.76707,73.7274312 C92.6838411,73.6428969 92.6179954,73.5448155 92.5711133,73.4321031 C92.5237044,73.3199326 92.5,73.2001757 92.5,73.0739162 C92.5,72.9465729 92.5237044,72.8268161 92.5711133,72.7151875 C92.6179954,72.603017 92.6838411,72.5054774 92.76707,72.4220269 C92.850299,72.3380346 92.9488041,72.2719244 93.0620587,72.2231547 C93.1753132,72.1743849 93.2975228,72.15 93.4281606,72.15 L93.4281606,72.15 Z" id="Fill-21" fill="#252525"></path>
                        <path d="M36.075,29.6 C36.075,38.9755944 40.416119,47.3226623 47.175,52.725 C53.933881,47.3226623 58.275,38.9755944 58.275,29.6 C58.275,20.2244056 53.933881,11.8773377 47.175,6.475 C40.416119,11.8773377 36.075,20.2244056 36.075,29.6" id="Fill-23" fill="#000000"></path>
                        <path d="M94.9836462,45.4 L94.9836462,44.7061224 L94.7039253,45.3047619 L94.3945932,45.3047619 L94.1148723,44.7078231 L94.1148723,45.4 L93.8235185,45.4 L93.8235185,44.4 L94.241249,44.4 L94.5500524,45.0407313 L94.8572694,44.4 L95.275,44.4 L95.275,45.4 L94.9836462,45.4 Z M92.8944646,45.4 L92.8944646,44.6155612 L92.5,44.6155612 L92.5,44.4 L93.5808117,44.4 L93.5808117,44.6155612 L93.1858184,44.6155612 L93.1858184,45.4 L92.8944646,45.4 Z" id="Fill-25" fill="#C5C5C5"></path>
                        <path d="M36.1193194,29.1375 C36.1193194,19.8749667 40.4431054,11.6285568 47.175,6.29136634 C42.210961,2.35585295 35.9400855,0 29.1153403,0 C13.0355681,0 0,13.0450272 0,29.1375 C0,45.2299728 13.0355681,58.275 29.1153403,58.275 C35.9400855,58.275 42.210961,55.919147 47.175,51.9836337 C40.4431054,46.6464432 36.1193194,38.4000333 36.1193194,29.1375" id="Fill-27" fill="#242424"></path>
                        <path d="M65.2346597,0 C58.4099145,0 52.139039,2.35631525 47.175,6.29136634 C53.9068946,11.6285568 58.2306806,19.8749667 58.2306806,29.1375 C58.2306806,38.4000333 53.9068946,46.6469055 47.175,51.9836337 C52.139039,55.919147 58.4099145,58.275 65.2346597,58.275 C81.3148938,58.275 94.35,45.2299728 94.35,29.1375 C94.35,13.0454895 81.3148938,0 65.2346597,0" id="Fill-29" fill="#585858"></path>
                    </g>
                    <rect id="Rectangle" x="0" y="0" width="192" height="105"></rect>
                </g>
            </g>
        </g>
    </g>
</svg>