<?xml version="1.0" encoding="UTF-8"?>
<svg width="192px" height="105px" viewBox="0 0 192 105" version="1.1" xmlns="http://www.w3.org/2000/svg" xmlns:xlink="http://www.w3.org/1999/xlink">
    <title>B0AC041D-69BA-4382-9998-A549925E8404@3x</title>
    <defs>
        <polygon id="path-1" points="-4.7830163e-15 0 33.716049 0 33.716049 82 -4.7830163e-15 82"></polygon>
    </defs>
    <g id="Page-1" stroke="none" stroke-width="1" fill="none" fill-rule="evenodd">
        <g id="Cenefas" transform="translate(-633.000000, -2429.000000)">
            <g id="Group-2" transform="translate(400.000000, 2056.000000)">
                <g id="logo_7" transform="translate(233.000000, 373.000000)">
                    <g id="Group-12" transform="translate(42.000000, 12.000000)">
                        <path d="M82.3002921,49.7857143 L90.1848945,49.7857143 C90.4100631,49.7857143 90.935793,49.7106581 91.1609616,49.7106581 C92.6627586,49.4100968 93.939387,48.0587487 93.939387,46.1813342 C93.939387,44.3789759 92.6627586,43.0272913 91.1609616,42.6520103 C90.935793,42.5769541 90.4854559,42.5769541 90.1848945,42.5769541 L82.3002921,42.5769541 L82.3002921,49.7857143 Z" id="Fill-1" fill="#252525"></path>
                        <path d="M89.2837827,0 C81.7747978,0 75.6171609,6.08258069 75.6171609,13.6666218 L75.6171609,27.8589735 L94.9156896,27.8589735 C95.3663634,27.8589735 95.8917567,27.8589735 96.2673742,27.9340297 C100.622653,28.1591983 103.851752,30.4122303 103.851752,34.3168351 C103.851752,37.3954853 101.673776,40.0237983 97.6190588,40.5495282 L97.6190588,40.6996406 C102.049394,40.9998654 105.428605,43.478066 105.428605,47.3076146 C105.428605,51.4377246 101.673776,54.1410938 96.718048,54.1410938 L75.5421047,54.1410938 L75.5421047,81.9250111 L95.5915319,81.9250111 C103.100517,81.9250111 109.258154,75.8424304 109.258154,68.2583893 L109.258154,0 L89.2837827,0 Z" id="Fill-3" fill="#252525"></path>
                        <path d="M92.9632863,35.217947 C92.9632863,33.4159252 91.6866578,32.214353 90.1848609,31.9891845 C90.0347485,31.9891845 89.6591309,31.9137917 89.4339624,31.9137917 L82.3002584,31.9137917 L82.3002584,38.5221023 L89.4339624,38.5221023 C89.6591309,38.5221023 90.1098047,38.5221023 90.1848609,38.4470461 C91.6866578,38.221541 92.9632863,37.0203053 92.9632863,35.217947" id="Fill-5" fill="#252525"></path>
                        <path d="M13.741678,0 C6.2323565,0 0.0750561916,6.08258069 0.0750561916,13.6666218 L0.0750561916,47.3826708 C3.90460484,49.2600853 7.88460244,50.4616576 11.8642635,50.4616576 C16.5951596,50.4616576 19.1484164,47.608176 19.1484164,43.7032346 L19.1484164,27.7839173 L30.8625675,27.7839173 L30.8625675,43.6281784 C30.8625675,49.7858153 27.0330188,54.8169361 14.0419027,54.8169361 C6.15730031,54.8169361 0,53.089634 0,53.089634 L0,81.8499549 L20.0494272,81.8499549 C27.5584122,81.8499549 33.716049,75.7673742 33.716049,68.1829966 L33.716049,0 L13.741678,0 Z" id="Fill-7" fill="#252525"></path>
                        <g id="Group-11" transform="translate(37.846125, 0.000000)">
                            <mask id="mask-2" fill="white">
                                <use xlink:href="#path-1"></use>
                            </mask>
                            <g id="Clip-10"></g>
                            <path d="M13.6666218,0 C6.15730031,0 -4.7830163e-15,6.08258069 -4.7830163e-15,13.6666218 L-4.7830163e-15,31.5384098 C3.45426769,28.609872 9.46145561,26.7324575 19.1484164,27.1831312 C24.3296496,27.4082998 29.8865004,28.8350406 29.8865004,28.8350406 L29.8865004,34.6173965 C27.108075,33.1906557 23.8039197,31.9140273 19.5236973,31.6134659 C12.1648248,31.087736 7.73449006,34.6924527 7.73449006,40.9998654 C7.73449006,47.3826708 12.1648248,50.9870509 19.5236973,50.3862648 C23.8039197,50.08604 27.108075,48.7343554 29.8865004,47.3826708 L29.8865004,53.1646902 C29.8865004,53.1646902 24.4047058,54.591431 19.1484164,54.8169361 C9.46145561,55.2672733 3.45426769,53.3901953 -4.7830163e-15,50.4616576 L-4.7830163e-15,82.0000673 L20.0494272,82.0000673 C27.5584122,82.0000673 33.716049,75.9174866 33.716049,68.3334455 L33.716049,0 L13.6666218,0 Z" id="Fill-9" fill="#252525" mask="url(#mask-2)"></path>
                        </g>
                    </g>
                    <rect id="Rectangle-Copy-37" x="0" y="0" width="192" height="105"></rect>
                </g>
            </g>
        </g>
    </g>
</svg>