<?xml version="1.0" encoding="UTF-8"?>
<svg width="192px" height="105px" viewBox="0 0 192 105" version="1.1" xmlns="http://www.w3.org/2000/svg" xmlns:xlink="http://www.w3.org/1999/xlink">
    <title>58C025FC-E1B2-4E1A-A173-B6CBC6880886@3x</title>
    <defs>
        <polygon id="path-1" points="0 0 90 0 90 89.9999623 0 89.9999623"></polygon>
        <polygon id="path-3" points="0 90 90 90 90 0 0 0"></polygon>
    </defs>
    <g id="Page-1" stroke="none" stroke-width="1" fill="none" fill-rule="evenodd">
        <g id="Cenefas" transform="translate(-864.000000, -2262.000000)">
            <g id="Group-2" transform="translate(400.000000, 2056.000000)">
                <g id="logo_3" transform="translate(464.000000, 206.000000)">
                    <g id="Group-24" transform="translate(51.000000, 8.000000)">
                        <g id="Group-3">
                            <mask id="mask-2" fill="white">
                                <use xlink:href="#path-1"></use>
                            </mask>
                            <g id="Clip-2"></g>
                            <path d="M0,-3.76679362e-05 L0,37.9349642 L3.37391705,30.0695225 L9.20830369,30.0695225 L11.1229649,34.475541 L11.1229649,30.0695225 L18.375926,30.0695225 L19.5157578,33.2539698 L20.620935,30.0695225 L53.178839,30.0695225 L53.178839,31.6704097 C53.178839,31.6704097 54.8900933,30.0695225 57.7031348,30.0695225 L68.2671075,30.106437 L70.1486209,34.4548236 L70.1486209,30.0695225 L76.2180555,30.0695225 L77.8886285,32.5672833 L77.8886285,30.0695225 L84.0141883,30.0695225 L84.0141883,44.1995187 L77.8886285,44.1995187 L76.2877412,41.6938476 L76.2877412,44.1995187 L67.370234,44.1995187 L66.4733604,41.9722136 L64.0761729,41.9722136 L63.1939899,44.1995187 L57.1464027,44.1995187 C54.7258611,44.1995187 53.178839,42.6310258 53.178839,42.6310258 L53.178839,44.1995187 L44.0605617,44.1995187 L42.2506173,41.9722136 L42.2506173,44.1995187 L8.34420123,44.1995187 L7.44770435,41.9722136 L5.05805048,41.9722136 L4.16833382,44.1995187 L0,44.1995187 L0,89.9999623 L90,89.9999623 L90,61.7399699 C90,61.7399699 88.5799188,62.7005022 86.9375968,62.7148161 L56.86766,62.7148161 L55.0580923,60.4871343 L55.0580923,62.7148161 L49.1276525,62.7148161 L49.1276525,58.9126146 C49.1276525,58.9126146 48.3174151,59.4433558 46.5662328,59.4433558 L44.5476081,59.4433558 L44.5476081,62.7148161 L35.5687021,62.7148161 L33.9655548,60.5775374 L32.3382999,62.7148161 L17.4711422,62.7144394 L17.4711422,48.5848198 L32.4320931,48.5848198 L34.0371238,50.6772737 L35.6952664,48.5848198 L90,48.5848198 L90,48.5848198 L90,-3.76679362e-05 L0,-3.76679362e-05 Z" id="Fill-1" fill="#252525" mask="url(#mask-2)"></path>
                        </g>
                        <path d="M4.75934374,37.9759846 L6.25137069,34.2739798 L7.73925417,37.9759846 L4.75934374,37.9759846 Z M9.53601473,42.3914201 L12.5641401,42.3914201 L8.01762022,31.8116268 L4.56799062,31.8116268 L0.01770393,42.3914201 L2.97991043,42.3914201 L3.81952873,40.2729753 L8.70091659,40.2729753 L9.53601473,42.3914201 Z" id="Fill-4" fill="#252525"></path>
                        <polygon id="Fill-6" fill="#252525" points="15.5220902 34.5939689 18.3336249 42.389725 20.6532164 42.389725 23.4572176 34.5939689 23.4572176 42.389725 26.1022601 42.389725 26.1022601 31.8099318 21.9256393 31.8099318 19.5359854 38.6466622 17.0871929 31.8253756 12.8770477 31.8099318 12.8770477 42.389725 15.5220902 42.389725"></polygon>
                        <polygon id="Fill-8" fill="#252525" points="36.5429833 40.0927719 30.5846691 40.0927719 30.5846691 38.2135186 36.4039886 38.2135186 36.4039886 35.9862135 30.5846691 35.9862135 30.5846691 34.1762692 36.5429833 34.1762692 36.5429833 31.8099694 27.9121291 31.8099694 27.9121291 42.3897627 36.5429833 42.3897627"></polygon>
                        <path d="M40.7192651,34.1781526 L40.7192651,34.1781526 L43.7428703,34.1781526 C44.4683547,34.1781526 44.9957059,34.7454317 44.9957059,35.2919935 C44.9957059,35.9948772 44.3120328,36.4054577 43.782045,36.4054577 L40.7192651,36.4054577 L40.7192651,34.1781526 Z M40.7192651,38.6327627 L41.8331059,38.6327627 L45.0043695,42.3916461 L48.2366551,42.3916461 L44.7565145,38.493768 C46.1848826,38.3732307 47.6580756,37.1471393 47.6580756,35.2437785 C47.6580756,33.0176035 45.91066,31.8114762 43.9602143,31.8114762 L38.0742226,31.8114762 L38.0742226,42.3916461 L40.7192651,42.3916461 L40.7192651,38.6327627 Z" id="Fill-10" fill="#252525"></path>
                        <mask id="mask-4" fill="white">
                            <use xlink:href="#path-3"></use>
                        </mask>
                        <g id="Clip-13"></g>
                        <polygon id="Fill-12" fill="#252525" mask="url(#mask-4)" points="48.7377893 42.389612 51.4385803 42.389612 51.4385803 31.8098188 48.7377893 31.8098188"></polygon>
                        <path d="M57.2594442,42.3896874 L57.8425438,42.3896874 L58.956008,40.0787595 L58.2599046,40.0787595 C56.5753945,40.0787595 55.4061817,39.2184238 55.4061817,37.1692881 C55.4061817,35.4440966 56.4288662,34.3155652 57.8745616,34.3155652 L60.9049471,34.3155652 L60.9049471,31.8098941 L57.9815385,31.8098941 C54.4196585,31.8098941 52.7261081,34.0443561 52.7261081,37.1432972 C52.7261081,40.1676558 54.4388691,42.3896874 57.2594442,42.3896874" id="Fill-14" fill="#252525" mask="url(#mask-4)"></path>
                        <path d="M65.2813209,34.2738292 L66.7692044,37.9758339 L63.7892939,37.9758339 L65.2813209,34.2738292 Z M62.0098606,42.3916461 L62.8494789,40.2728247 L67.7304901,40.2728247 L68.5659649,42.3916461 L71.5937136,42.3916461 L67.0475704,31.8114762 L63.5979408,31.8114762 L59.0472774,42.3916461 L62.0098606,42.3916461 Z" id="Fill-15" fill="#252525" mask="url(#mask-4)"></path>
                        <polygon id="Fill-16" fill="#252525" mask="url(#mask-4)" points="74.5476709 35.5685138 78.9502993 42.3898004 82.2044323 42.3898004 82.2044323 31.8096304 79.5593898 31.8096304 79.5593898 38.4568911 75.2652451 31.8096304 71.9026284 31.8096304 71.9026284 42.3898004 74.5476709 42.3898004"></polygon>
                        <polygon id="Fill-17" fill="#252525" mask="url(#mask-4)" points="19.2808228 60.9049094 27.9120537 60.9049094 27.9120537 58.6079186 21.9537396 58.6079186 21.9537396 56.7286653 27.7726824 56.7286653 27.7726824 54.5009836 21.9537396 54.5009836 21.9537396 52.6914159 27.9120537 52.6914159 27.9120537 50.3247395 19.2808228 50.3247395"></polygon>
                        <polygon id="Fill-18" fill="#252525" mask="url(#mask-4)" points="70.2042941 58.6078433 64.24598 58.6078433 64.24598 56.72859 70.0374252 56.72859 70.0374252 54.5012849 64.24598 54.5012849 64.24598 52.6913406 70.2042941 52.6913406 70.2042941 50.3246641 61.5730632 50.3246641 61.5730632 60.9048341 70.2042941 60.9048341"></polygon>
                        <polygon id="Fill-19" fill="#252525" mask="url(#mask-4)" points="31.479132 50.3248525 28.1470263 50.3248525 32.449458 55.680103 28.2468464 60.9050224 31.5314904 60.9050224 33.9588122 57.6467459 36.4467794 60.9050224 39.778885 60.9050224 35.5687398 55.6149374 39.8142929 50.3248525 36.6125183 50.3248525 34.0416817 53.6354874"></polygon>
                        <path d="M42.8075378,52.7192902 L45.7396099,52.7192902 C46.5005022,52.7192902 47.0448039,53.1856192 47.0448039,53.9374712 C47.0448039,54.643745 46.5035157,55.1556523 45.7309463,55.1556523 L42.8075378,55.1556523 L42.8075378,52.7192902 Z M42.8075378,57.5656468 L45.5915749,57.5656468 C47.9477043,57.5656468 49.7331645,56.3158247 49.7331645,53.8854895 C49.7331645,51.8717616 48.3326707,50.3266229 45.9354832,50.3266229 L40.0928096,50.3266229 L40.0928096,60.9067928 L42.8075378,60.9067928 L42.8075378,57.5656468 Z" id="Fill-20" fill="#252525" mask="url(#mask-4)"></path>
                        <path d="M53.5267777,52.6915289 L56.550383,52.6915289 C57.2754907,52.6915289 57.8032185,53.258808 57.8032185,53.8049931 C57.8032185,54.5082535 57.1195455,54.918834 56.5891809,54.918834 L53.5267777,54.918834 L53.5267777,52.6915289 Z M53.5267777,57.146139 L54.6406186,57.146139 L57.8118821,60.9050224 L61.0441677,60.9050224 L57.5640271,57.0071444 C58.9923953,56.8862303 60.4655882,55.6605156 60.4655882,53.7571548 C60.4655882,51.5309798 58.7181727,50.3248525 56.7677269,50.3248525 L50.8817352,50.3248525 L50.8817352,60.9050224 L53.5267777,60.9050224 L53.5267777,57.146139 Z" id="Fill-21" fill="#252525" mask="url(#mask-4)"></path>
                        <path d="M74.3308166,56.8259992 L76.7227305,56.8259992 C77.5073536,56.8259992 77.845235,57.2757544 77.845235,57.7206127 C77.845235,58.1846817 77.5062236,58.6076926 76.7227305,58.6076926 L71.4292554,58.6076926 L71.4292554,60.9050601 L77.0666388,60.9050601 C79.3956473,60.9050601 80.5162684,59.3889256 80.5162684,57.5379232 C80.5162684,55.8161219 79.5105345,54.5011342 77.1928264,54.5011342 L74.6867786,54.5011342 C74.0362533,54.5011342 73.712309,54.0174779 73.712309,53.5790231 C73.712309,53.1522454 73.9744779,52.7055037 74.8261499,52.7055037 L79.2807601,52.7055037 L80.3946009,50.3248901 L75.2438873,50.3248901 C72.1539865,50.3248901 71.0936341,51.9608086 71.0936341,53.6573725 C71.0936341,55.5592266 72.2515465,56.8259992 74.3308166,56.8259992" id="Fill-22" fill="#252525" mask="url(#mask-4)"></path>
                        <path d="M80.8013393,53.6572971 C80.8013393,55.5591512 81.9592517,56.8259239 84.0385217,56.8259239 L86.2066882,56.8259239 C86.9909346,56.8259239 87.3291927,57.2756791 87.3291927,57.7205374 C87.3291927,58.1846064 86.9898045,58.607994 86.2066882,58.607994 L81.1369606,58.607994 L81.1369606,60.9049847 L86.5502197,60.9049847 C88.8792282,60.9049847 90.000226,59.3888503 90.000226,57.5378479 C90.000226,55.8160465 88.9944921,54.5010589 86.6764073,54.5010589 L84.3948604,54.5010589 C83.7439585,54.5010589 83.4203909,54.0174026 83.4203909,53.5789478 C83.4203909,53.1521701 83.6821831,52.7054284 84.5338551,52.7054284 L88.8863851,52.7054284 L90.000226,50.3248148 L84.9515925,50.3248148 C81.8616917,50.3248148 80.8013393,51.9607333 80.8013393,53.6572971" id="Fill-23" fill="#252525" mask="url(#mask-4)"></path>
                    </g>
                    <rect id="Rectangle-Copy-29" x="0" y="0" width="192" height="105"></rect>
                </g>
            </g>
        </g>
    </g>
</svg>