<?xml version="1.0" encoding="UTF-8"?>
<svg width="192px" height="105px" viewBox="0 0 192 105" version="1.1" xmlns="http://www.w3.org/2000/svg" xmlns:xlink="http://www.w3.org/1999/xlink">
    <title>134F51BC-DED2-4DAF-B2E4-0BC7F140227C@3x</title>
    <defs>
        <polygon id="path-1" points="0 0 91.0124117 0 91.0124117 58 0 58"></polygon>
    </defs>
    <g id="Page-1" stroke="none" stroke-width="1" fill="none" fill-rule="evenodd">
        <g id="Cenefas" transform="translate(-756.000000, -2608.000000)">
            <g id="Group-2" transform="translate(400.000000, 2056.000000)">
                <g id="logo_12" transform="translate(356.000000, 552.000000)">
                    <g id="Group-3" transform="translate(50.000000, 24.000000)">
                        <mask id="mask-2" fill="white">
                            <use xlink:href="#path-1"></use>
                        </mask>
                        <g id="Clip-2"></g>
                        <path d="M54.3996949,29.8252332 C52.5638865,27.7123863 50.7645387,25.6375582 48.9608282,23.566158 C43.5556174,17.359125 38.1466671,11.1552082 32.7445726,4.94537053 C31.5363857,3.5564386 31.2674495,2.23076741 32.2316307,1.19896269 C32.7791634,0.613411178 33.7168561,0.0820831662 34.4896968,0.0665016996 C39.4626777,-0.0338429455 44.4387749,0.0263015157 49.4136256,0.00666886772 C50.5467098,0.00199442773 51.2899458,0.594401789 51.9767768,1.38469378 C57.9874834,8.29974867 64.0059807,15.2082593 70.021985,22.119263 C71.6789181,24.0223834 73.3448885,25.9180246 74.98811,27.8329869 C76.2779438,29.3356635 76.2698415,30.6027484 74.9173702,32.0549411 C68.9097799,38.5034868 62.8862965,44.937386 56.8702922,51.3778295 C56.6075887,51.6589191 56.3589085,51.9530972 56.0033394,52.3547874 C56.3483131,52.4255273 56.5823467,52.5084207 56.8182501,52.5152765 C57.4785927,52.5342859 58.1566981,52.4255273 58.797408,52.5386487 C62.1636281,53.1323026 64.4313547,51.7125194 66.6492207,49.1967358 C72.2186601,42.8800092 78.0925614,36.8312838 83.8424342,30.6731766 C84.0761562,30.4226266 84.2883758,30.1521324 84.5716469,29.8193122 C82.2048221,27.099723 79.8666672,24.4116084 77.5272658,21.7244287 C72.6069503,16.0733424 67.6825836,10.425684 62.7678774,4.76992322 C61.7834403,3.63715059 61.5967743,2.40434495 62.2415354,1.35353084 C62.8719616,0.325465675 63.8429986,-0.21365307 65.0038178,0.0792785022 C65.7028024,0.255349075 66.4394942,0.71998841 66.9181568,1.26565137 C73.8812026,9.20440862 80.8037366,17.1790032 87.7362428,25.1445606 C88.5517767,26.0819416 89.3853852,27.0037412 90.1847144,27.9545223 C91.2994125,29.2798819 91.2972311,30.6635161 90.1233234,31.9231219 C82.3413157,40.2741647 74.562736,48.6283239 66.7196489,56.9223385 C66.157158,57.5172389 65.0991764,57.9201757 64.26214,57.936692 C59.4836158,58.0320506 54.7019754,57.970348 49.9212698,57.9912272 C48.5912358,57.9971481 47.5413565,57.5770718 47.0090936,56.3037543 C46.4762075,55.0298136 46.9458329,53.9914647 47.843637,53.0335161 C54.8266271,45.583082 61.7952822,38.1192479 68.7670536,30.6582184 C68.9780267,30.4322871 69.1759113,30.1938907 69.4420428,29.8903637 C69.2444698,29.6167532 69.0683992,29.328496 68.8499471,29.0776344 C62.250261,21.4910183 55.6406029,13.9134395 49.0540053,6.31591634 C48.497747,5.67427154 47.9240374,5.3944284 47.0577078,5.42154015 C44.9669866,5.48729394 42.8728375,5.44304257 40.5723898,5.44304257 C40.8322886,5.81980244 40.9700288,6.06754776 41.152332,6.27696267 C47.3416021,13.3970697 53.5343002,20.5140604 59.7282449,27.6301162 C61.2502425,29.37898 61.2231308,30.583739 59.618863,32.2998817 C52.0353632,40.41097 44.4446959,48.5152024 36.8808287,56.6446768 C36.0247829,57.5649182 35.0933229,58.0052505 33.8212519,58 C25.5814607,57.9672317 17.3416696,57.9887341 9.10219,57.981255 C3.85372878,57.9765806 0.0138321478,54.186233 0.00884607847,48.9729859 C-0.00361909484,35.6632971 -0.00206094817,22.3532967 0.0082228198,9.04360788 C0.0122740011,3.7998211 3.81477512,0.0234968517 9.06728752,0.015394489 C13.5756291,0.00822701438 18.0842823,0.010720049 22.5926238,0.015394489 C24.5184931,0.0175758944 25.724187,1.03785033 25.7506755,2.66611359 C25.7780988,4.33862822 24.549656,5.43275881 22.5764191,5.43867976 C18.1843153,5.45145657 13.7925231,5.43930302 9.40041927,5.44428909 C6.75717928,5.44709376 5.44303838,6.72757868 5.4411686,9.36115817 C5.43213135,22.4380599 5.43213135,35.5149615 5.44023372,48.5918632 C5.44210349,51.2491265 6.72788612,52.5190161 9.37486567,52.5205742 C16.953691,52.5255603 24.532828,52.5124719 32.1116534,52.5370906 C32.9140989,52.5398952 33.4728503,52.3133407 34.0294203,51.7137659 C40.5546269,44.6859012 47.1094383,37.6857715 53.6549008,30.6769162 C53.8883112,30.4269894 54.1058284,30.1621045 54.3996949,29.8252332" id="Fill-1" fill="#252525" mask="url(#mask-2)"></path>
                    </g>
                    <rect id="Rectangle-Copy-41" x="0" y="0" width="192" height="105"></rect>
                </g>
            </g>
        </g>
    </g>
</svg>